<svg width="360" height="232" viewBox="0 0 360 232" fill="none" xmlns="http://www.w3.org/2000/svg">
<g clip-path="url(#clip0)">
<path d="M57.0483 231.088C82.2538 231.088 102.687 227.81 102.687 223.765C102.687 219.721 82.2538 216.443 57.0483 216.443C31.8428 216.443 11.4097 219.721 11.4097 223.765C11.4097 227.81 31.8428 231.088 57.0483 231.088Z" fill="#F0F7FF"/>
<path d="M60.6244 226.831C85.8299 226.831 106.263 223.552 106.263 219.508C106.263 215.464 85.8299 212.185 60.6244 212.185C35.4189 212.185 14.9858 215.464 14.9858 219.508C14.9858 223.552 35.4189 226.831 60.6244 226.831Z" stroke="#3F3D56" stroke-miterlimit="10"/>
<path d="M157.235 9.36615H35.5369C31.2406 9.36615 27.7578 12.849 27.7578 17.1452V83.3279C27.7578 87.6241 31.2406 91.1069 35.5369 91.1069H157.235C161.531 91.1069 165.014 87.6241 165.014 83.3279V17.1452C165.014 12.849 161.531 9.36615 157.235 9.36615Z" fill="#35A7FF"/>
<path d="M337.406 74.7588H215.707C211.411 74.7588 207.928 78.2416 207.928 82.5379V148.72C207.928 153.017 211.411 156.5 215.707 156.5H337.406C341.702 156.5 345.185 153.017 345.185 148.72V82.5379C345.185 78.2416 341.702 74.7588 337.406 74.7588Z" fill="#F0F7FF"/>
<path d="M146.677 0.170288H24.9788C20.6825 0.170288 17.1997 3.6531 17.1997 7.94936V74.132C17.1997 78.4283 20.6825 81.9111 24.9788 81.9111H146.677C150.973 81.9111 154.456 78.4283 154.456 74.132V7.94936C154.456 3.6531 150.973 0.170288 146.677 0.170288Z" stroke="#3F3D56" stroke-miterlimit="10"/>
<path d="M326.847 65.5629H205.149C200.853 65.5629 197.37 69.0457 197.37 73.3419V139.525C197.37 143.821 200.853 147.304 205.149 147.304H326.847C331.143 147.304 334.626 143.821 334.626 139.525V73.3419C334.626 69.0457 331.143 65.5629 326.847 65.5629Z" stroke="#FD3E60" stroke-miterlimit="10"/>
<path d="M326.922 24.3374C325.471 24.4194 324.07 24.9042 322.879 25.7375C321.687 26.5707 320.751 27.7194 320.175 29.0549C318.488 33.133 320.661 37.9233 323.922 40.8972C327.183 43.871 331.371 45.5708 335.177 47.805C340.289 50.806 344.883 54.9719 347.441 60.3195C349.999 65.6671 350.271 72.2911 347.264 77.3999C344.473 82.1417 339.399 84.9796 334.56 87.5969" stroke="#3F3D56" stroke-miterlimit="10"/>
<path d="M331.221 27.5875C334.512 27.5875 337.181 26.2914 337.181 24.6925C337.181 23.0937 334.512 21.7975 331.221 21.7975C327.929 21.7975 325.26 23.0937 325.26 24.6925C325.26 26.2914 327.929 27.5875 331.221 27.5875Z" fill="#35A7FF"/>
<path d="M335.989 46.6603C339.28 46.6603 341.949 45.3642 341.949 43.7653C341.949 42.1665 339.28 40.8704 335.989 40.8704C332.697 40.8704 330.028 42.1665 330.028 43.7653C330.028 45.3642 332.697 46.6603 335.989 46.6603Z" fill="#35A7FF"/>
<path d="M325.09 49.7256C328.382 49.7256 331.05 48.4295 331.05 46.8307C331.05 45.2318 328.382 43.9357 325.09 43.9357C321.798 43.9357 319.13 45.2318 319.13 46.8307C319.13 48.4295 321.798 49.7256 325.09 49.7256Z" fill="#35A7FF"/>
<path d="M342.119 65.7332C345.411 65.7332 348.079 64.4371 348.079 62.8382C348.079 61.2394 345.411 59.9432 342.119 59.9432C338.827 59.9432 336.159 61.2394 336.159 62.8382C336.159 64.4371 338.827 65.7332 342.119 65.7332Z" fill="#35A7FF"/>
<path d="M354.04 65.7332C357.331 65.7332 360 64.4371 360 62.8382C360 61.2394 357.331 59.9432 354.04 59.9432C350.748 59.9432 348.079 61.2394 348.079 62.8382C348.079 64.4371 350.748 65.7332 354.04 65.7332Z" fill="#35A7FF"/>
<path d="M7.79308 155.123C6.34127 155.205 4.941 155.689 3.74928 156.523C2.55756 157.356 1.62151 158.505 1.04608 159.84C-0.641013 163.918 1.53125 168.709 4.79219 171.682C8.05314 174.656 12.242 176.356 16.048 178.59C21.16 181.591 25.7536 185.757 28.3115 191.105C30.8693 196.452 31.1414 203.076 28.1347 208.185C25.3441 212.927 20.2697 215.765 15.4301 218.382" stroke="#3F3D56" stroke-miterlimit="10"/>
<path d="M12.0909 158.373C15.3826 158.373 18.0511 157.077 18.0511 155.478C18.0511 153.879 15.3826 152.583 12.0909 152.583C8.79912 152.583 6.13062 153.879 6.13062 155.478C6.13062 157.077 8.79912 158.373 12.0909 158.373Z" fill="#35A7FF"/>
<path d="M16.8592 177.446C20.151 177.446 22.8195 176.149 22.8195 174.551C22.8195 172.952 20.151 171.656 16.8592 171.656C13.5674 171.656 10.8989 172.952 10.8989 174.551C10.8989 176.149 13.5674 177.446 16.8592 177.446Z" fill="#35A7FF"/>
<path d="M5.96026 180.511C9.25203 180.511 11.9205 179.215 11.9205 177.616C11.9205 176.017 9.25203 174.721 5.96026 174.721C2.6685 174.721 0 176.017 0 177.616C0 179.215 2.6685 180.511 5.96026 180.511Z" fill="#35A7FF"/>
<path d="M22.9896 196.518C26.2813 196.518 28.9498 195.222 28.9498 193.623C28.9498 192.025 26.2813 190.729 22.9896 190.729C19.6978 190.729 17.0293 192.025 17.0293 193.623C17.0293 195.222 19.6978 196.518 22.9896 196.518Z" fill="#35A7FF"/>
<path d="M34.9102 196.518C38.202 196.518 40.8705 195.222 40.8705 193.623C40.8705 192.025 38.202 190.729 34.9102 190.729C31.6185 190.729 28.95 192.025 28.95 193.623C28.95 195.222 31.6185 196.518 34.9102 196.518Z" fill="#35A7FF"/>
<path d="M87.1901 92.4693C87.1901 92.4693 87.8713 97.5781 86.1683 99.6216C84.4654 101.665 81.7407 115.289 81.7407 115.289V123.463C81.7407 123.463 92.2989 108.136 94.3424 102.006C96.3859 95.8751 94.3424 91.1069 94.3424 91.1069L87.1901 92.4693Z" fill="#FFC1C7"/>
<path d="M86.1684 67.2659L86.3124 67.4278C88.0712 69.4057 89.4515 71.6901 90.3845 74.167C92.6204 80.1043 97.4265 94.74 95.7049 96.2157C93.3208 98.2593 86.509 99.6216 86.1684 99.281C85.8278 98.9404 79.0161 77.8241 79.0161 77.8241L86.1684 67.2659Z" fill="#3F3D56"/>
<path d="M75.0995 212.015C75.0995 212.015 83.2736 213.718 83.6142 212.015C83.832 210.956 84.175 209.927 84.6359 208.95C84.6359 208.95 92.0446 209.259 90.1104 215.754C89.9164 216.394 89.493 216.94 88.9213 217.287C87.1569 218.367 83.0007 220.913 80.8895 222.233C79.3026 223.225 77.0226 222.483 75.395 221.692C74.8117 221.406 74.3396 220.935 74.0525 220.352C73.7654 219.769 73.6795 219.108 73.8083 218.471L75.0995 212.015Z" fill="#3F3D56"/>
<path d="M51.5989 213.037C51.5989 213.037 43.4248 214.74 43.0842 213.037C42.8664 211.978 42.5234 210.949 42.0625 209.972C42.0625 209.972 34.668 210.28 36.5824 216.757C36.7792 217.409 37.2105 217.966 37.7933 218.319C39.5669 219.404 43.7041 221.939 45.8089 223.255C47.5467 224.341 50.1157 223.349 51.7488 222.488C52.2025 222.251 52.5673 221.873 52.7887 221.412C53.0101 220.951 53.0762 220.43 52.977 219.928L51.5989 213.037Z" fill="#3F3D56"/>
<path d="M41.3811 96.8969C41.3811 96.8969 40.6999 102.006 42.4029 104.049C44.1058 106.093 46.8305 113.926 46.8305 113.926V122.1C46.8305 122.1 36.2723 112.564 34.2288 106.433C32.1853 100.303 34.2288 95.5345 34.2288 95.5345L41.3811 96.8969Z" fill="#FFC1C7"/>
<path d="M65.2224 55.0047C69.9249 55.0047 73.7371 51.1925 73.7371 46.49C73.7371 41.7875 69.9249 37.9753 65.2224 37.9753C60.5199 37.9753 56.7078 41.7875 56.7078 46.49C56.7078 51.1925 60.5199 55.0047 65.2224 55.0047Z" fill="#FFC1C7"/>
<path d="M72.0341 49.8959C72.0341 49.8959 69.65 60.7947 72.0341 62.157C74.4182 63.5194 57.7295 62.157 57.7295 62.157C57.7295 62.157 61.4759 52.9612 59.773 49.8959C58.0701 46.8306 72.0341 49.8959 72.0341 49.8959Z" fill="#FFC1C7"/>
<path d="M80.2082 122.441C80.2082 122.441 83.2735 126.869 82.2517 140.492C81.23 154.115 80.2082 168.42 80.2082 168.42C80.2082 168.42 87.7011 211.334 85.317 212.356C82.9329 213.378 75.0994 214.399 74.0777 213.378C73.0559 212.356 68.2877 172.507 68.2877 172.507L63.8601 139.811L57.0483 177.275C57.0483 177.275 53.3019 213.718 50.5772 215.421C48.6294 216.638 44.767 215.767 42.7228 215.171C42.3394 215.061 42.0042 214.825 41.771 214.502C41.5378 214.178 41.4202 213.785 41.4371 213.387C41.6868 207.656 42.8079 185.039 45.4684 171.145C48.5337 155.137 42.4031 123.122 47.8525 122.441C53.3019 121.76 80.2082 122.441 80.2082 122.441Z" fill="#191C1F"/>
<path d="M56.367 60.7947C56.367 60.7947 57.7293 54.6641 62.8381 55.3453C67.9469 56.0265 71.3528 55.6859 72.3746 59.0918C73.3963 62.4976 84.2951 65.2223 84.2951 65.2223C84.2951 65.2223 87.0198 65.5629 86.6792 69.9905C86.3386 74.4182 79.5269 90.7663 79.5269 90.7663C79.5269 90.7663 79.8675 104.39 81.5704 110.52C83.2733 116.651 83.2733 124.144 79.5269 125.847C75.7804 127.55 52.2799 133.68 46.8306 126.187C46.8306 126.187 43.7653 115.289 45.8088 110.861C47.8523 106.433 45.4682 89.0634 45.4682 89.0634L38.9971 74.7587C38.9971 74.7587 41.0406 67.947 46.8306 65.9035C50.2571 64.7101 53.4751 62.9862 56.367 60.7947Z" fill="#3F3D56"/>
<path d="M41.722 71.6935L38.9973 74.7588C38.9973 74.7588 30.8232 94.8534 33.2073 96.8969C35.5914 98.9404 42.4032 100.303 42.7437 99.9622C43.0843 99.6216 48.8743 82.2517 48.8743 82.2517L41.722 71.6935Z" fill="#3F3D56"/>
<path d="M75.0994 41.3812C75.0994 41.3812 73.737 42.403 73.3965 44.7871C73.0559 47.1712 70.9644 43.4287 70.4775 48.3652C69.9906 53.3018 61.8165 56.7076 58.7512 54.3235C55.686 51.9394 50.5772 36.9536 57.7295 34.5695C64.8818 32.1854 72.0341 32.526 73.3965 34.9101C74.7588 37.2942 75.0994 41.3812 75.0994 41.3812Z" fill="#2F2E41"/>
<path opacity="0.1" d="M68.4336 48.3652C68.9205 43.4287 71.012 47.1713 71.3525 44.7872C71.6931 42.4031 73.0555 41.3813 73.0555 41.3813C73.0555 41.3813 72.7149 37.2943 71.3525 34.9102C70.7007 33.7695 68.7216 33.098 66.053 32.9676C69.7346 32.7989 72.5868 33.494 73.3961 34.9102C74.7584 37.2943 75.099 41.3813 75.099 41.3813C75.099 41.3813 73.7367 42.4031 73.3961 44.7872C73.0555 47.1713 70.964 43.4287 70.4771 48.3652C70.0643 52.5504 64.1276 55.6336 60.4617 55.0231C63.9553 54.5434 68.0914 51.8338 68.4336 48.3652Z" fill="#191C1F"/>
</g>
<defs>
<clipPath id="clip0">
<rect width="360" height="231.088" fill="white"/>
</clipPath>
</defs>
</svg>
