<svg width="424" height="196" viewBox="0 0 424 196" fill="none" xmlns="http://www.w3.org/2000/svg">
<g clip-path="url(#clip0)">
<path d="M38.0314 186.594L37.461 186.38C37.3357 186.333 24.8614 181.553 19.0179 170.715C13.1741 159.877 16.0355 146.828 16.0651 146.697L16.1998 146.103L16.7699 146.317C16.8952 146.364 29.3693 151.144 35.2131 161.982C41.0568 172.82 38.1954 185.869 38.1658 185.999L38.0314 186.594ZM19.9536 170.211C24.8941 179.374 34.7517 184.071 37.2493 185.143C37.7242 182.466 39.2134 171.641 34.2773 162.486C29.3418 153.333 19.4803 148.628 16.9817 147.553C16.5065 150.232 15.0178 161.057 19.9536 170.211Z" fill="#3F3D56"/>
<path d="M23.2257 167.342C28.3791 170.443 31.9636 175.084 34.2643 178.972C35.4129 180.913 36.2371 182.659 36.7735 183.919C37.0349 184.532 37.2278 185.03 37.3563 185.377C36.9891 185.427 36.4592 185.489 35.7946 185.546C34.4309 185.662 32.5023 185.752 30.2492 185.646C25.7365 185.435 19.9572 184.442 14.8038 181.341C9.65042 178.241 6.06592 173.6 3.76525 169.711C2.61659 167.77 1.79246 166.024 1.25604 164.765C0.994611 164.151 0.801755 163.653 0.673162 163.306C1.04039 163.257 1.57026 163.194 2.23488 163.138C3.59862 163.022 5.52717 162.932 7.78028 163.037C12.293 163.248 18.0723 164.241 23.2257 167.342Z" stroke="#35A7FF"/>
<path d="M359.569 2.41379H242.465V0H189.365V2.41379H71.7779C70.7377 2.41379 69.7076 2.6187 68.7466 3.01681C67.7855 3.41492 66.9123 3.99843 66.1768 4.73404C65.4412 5.46964 64.8577 6.34293 64.4597 7.30405C64.0616 8.26517 63.8567 9.29529 63.8567 10.3356V170.699C63.8567 172.8 64.6912 174.815 66.1768 176.3C67.6623 177.786 69.6771 178.621 71.7779 178.621H359.569C360.609 178.621 361.639 178.416 362.6 178.018C363.561 177.62 364.435 177.036 365.17 176.3C365.906 175.565 366.489 174.692 366.887 173.73C367.285 172.769 367.49 171.739 367.49 170.699V10.3356C367.49 9.29529 367.285 8.26516 366.887 7.30404C366.489 6.34293 365.906 5.46964 365.17 4.73403C364.435 3.99842 363.561 3.41491 362.6 3.0168C361.639 2.61869 360.609 2.41379 359.569 2.41379Z" fill="#35A7FF"/>
<path d="M356.87 16.4138H74.4766V175.724H356.87V16.4138Z" fill="#F0F7FF"/>
<path d="M215.432 12.0689C217.032 12.0689 218.328 10.7721 218.328 9.1724C218.328 7.57268 217.032 6.27585 215.432 6.27585C213.832 6.27585 212.536 7.57268 212.536 9.1724C212.536 10.7721 213.832 12.0689 215.432 12.0689Z" fill="#35A7FF"/>
<path d="M375.419 172.828H347.859V170.842C347.859 170.79 347.849 170.739 347.829 170.691C347.809 170.643 347.78 170.6 347.744 170.563C347.707 170.527 347.664 170.498 347.616 170.478C347.568 170.458 347.517 170.448 347.466 170.448H338.016C337.965 170.448 337.914 170.458 337.866 170.478C337.818 170.498 337.775 170.527 337.738 170.563C337.702 170.6 337.673 170.643 337.653 170.691C337.633 170.739 337.623 170.79 337.623 170.842V172.828H331.717V170.842C331.717 170.79 331.707 170.739 331.687 170.691C331.667 170.643 331.638 170.6 331.602 170.563C331.565 170.527 331.522 170.498 331.474 170.478C331.426 170.458 331.375 170.448 331.323 170.448H321.874C321.823 170.448 321.771 170.458 321.724 170.478C321.676 170.498 321.632 170.527 321.596 170.563C321.559 170.6 321.53 170.643 321.511 170.691C321.491 170.739 321.481 170.79 321.481 170.842V172.828H315.575V170.842C315.575 170.79 315.565 170.739 315.545 170.691C315.525 170.643 315.496 170.6 315.46 170.563C315.423 170.527 315.38 170.498 315.332 170.478C315.284 170.458 315.233 170.448 315.181 170.448H305.732C305.68 170.448 305.629 170.458 305.581 170.478C305.534 170.498 305.49 170.527 305.454 170.563C305.417 170.6 305.388 170.643 305.368 170.691C305.349 170.739 305.338 170.79 305.338 170.842V172.828H299.433V170.842C299.433 170.79 299.423 170.739 299.403 170.691C299.383 170.643 299.354 170.6 299.317 170.563C299.281 170.527 299.237 170.498 299.19 170.478C299.142 170.458 299.091 170.448 299.039 170.448H289.59C289.538 170.448 289.487 170.458 289.439 170.478C289.392 170.498 289.348 170.527 289.312 170.563C289.275 170.6 289.246 170.643 289.226 170.691C289.206 170.739 289.196 170.79 289.196 170.842V172.828H283.291V170.842C283.291 170.79 283.28 170.739 283.261 170.691C283.241 170.643 283.212 170.6 283.175 170.563C283.139 170.527 283.095 170.498 283.048 170.478C283 170.458 282.949 170.448 282.897 170.448H273.448C273.396 170.448 273.345 170.458 273.297 170.478C273.249 170.498 273.206 170.527 273.169 170.563C273.133 170.6 273.104 170.643 273.084 170.691C273.064 170.739 273.054 170.79 273.054 170.842V172.828H267.148V170.842C267.148 170.79 267.138 170.739 267.118 170.691C267.099 170.643 267.07 170.6 267.033 170.563C266.997 170.527 266.953 170.498 266.905 170.478C266.858 170.458 266.806 170.448 266.755 170.448H257.306C257.254 170.448 257.203 170.458 257.155 170.478C257.107 170.498 257.064 170.527 257.027 170.563C256.991 170.6 256.962 170.643 256.942 170.691C256.922 170.739 256.912 170.79 256.912 170.842V172.828H251.006V170.842C251.006 170.79 250.996 170.739 250.976 170.691C250.956 170.643 250.928 170.6 250.891 170.563C250.854 170.527 250.811 170.498 250.763 170.478C250.715 170.458 250.664 170.448 250.613 170.448H176.595C176.543 170.448 176.492 170.458 176.444 170.478C176.396 170.498 176.353 170.527 176.316 170.563C176.28 170.6 176.251 170.643 176.231 170.691C176.211 170.739 176.201 170.79 176.201 170.842V172.828H170.295V170.842C170.295 170.79 170.285 170.739 170.265 170.691C170.246 170.643 170.217 170.6 170.18 170.563C170.144 170.527 170.1 170.498 170.052 170.478C170.005 170.458 169.953 170.448 169.902 170.448H160.453C160.401 170.448 160.35 170.458 160.302 170.478C160.254 170.498 160.211 170.527 160.174 170.563C160.138 170.6 160.109 170.643 160.089 170.691C160.069 170.739 160.059 170.79 160.059 170.842V172.828H154.153V170.842C154.153 170.79 154.143 170.739 154.123 170.691C154.104 170.643 154.075 170.6 154.038 170.563C154.001 170.527 153.958 170.498 153.91 170.478C153.862 170.458 153.811 170.448 153.76 170.448H144.31C144.259 170.448 144.208 170.458 144.16 170.478C144.112 170.498 144.069 170.527 144.032 170.563C143.996 170.6 143.967 170.643 143.947 170.691C143.927 170.739 143.917 170.79 143.917 170.842V172.828H138.011V170.842C138.011 170.79 138.001 170.739 137.981 170.691C137.961 170.643 137.932 170.6 137.896 170.563C137.859 170.527 137.816 170.498 137.768 170.478C137.72 170.458 137.669 170.448 137.617 170.448H128.168C128.117 170.448 128.065 170.458 128.018 170.478C127.97 170.498 127.926 170.527 127.89 170.563C127.853 170.6 127.824 170.643 127.805 170.691C127.785 170.739 127.775 170.79 127.775 170.842V172.828H121.869V170.842C121.869 170.79 121.859 170.739 121.839 170.691C121.819 170.643 121.79 170.6 121.754 170.563C121.717 170.527 121.674 170.498 121.626 170.478C121.578 170.458 121.527 170.448 121.475 170.448H112.026C111.974 170.448 111.923 170.458 111.875 170.478C111.828 170.498 111.784 170.527 111.748 170.563C111.711 170.6 111.682 170.643 111.662 170.691C111.643 170.739 111.632 170.79 111.632 170.842V172.828H105.727V170.842C105.727 170.79 105.717 170.739 105.697 170.691C105.677 170.643 105.648 170.6 105.611 170.563C105.575 170.527 105.532 170.498 105.484 170.478C105.436 170.458 105.385 170.448 105.333 170.448H95.884C95.8323 170.448 95.7811 170.458 95.7333 170.478C95.6856 170.498 95.6422 170.527 95.6056 170.563C95.569 170.6 95.54 170.643 95.5203 170.691C95.5005 170.739 95.4903 170.79 95.4903 170.842V172.828H89.5846V170.842C89.5846 170.79 89.5744 170.739 89.5546 170.691C89.5349 170.643 89.5059 170.6 89.4693 170.563C89.4327 170.527 89.3893 170.498 89.3416 170.478C89.2938 170.458 89.2426 170.448 89.1909 170.448H79.7418C79.6901 170.448 79.6389 170.458 79.5912 170.478C79.5434 170.498 79.5 170.527 79.4634 170.563C79.4269 170.6 79.3979 170.643 79.3781 170.691C79.3583 170.739 79.3481 170.79 79.3481 170.842V172.828H61.2374C58.7314 172.828 56.3279 173.823 54.5559 175.595C52.7839 177.367 51.7883 179.771 51.7883 182.277V186.55C51.7883 189.056 52.7839 191.46 54.5559 193.232C56.328 195.004 58.7314 196 61.2374 196H375.419C377.925 196 380.328 195.004 382.101 193.232C383.873 191.46 384.868 189.056 384.868 186.55V182.277C384.868 179.771 383.873 177.367 382.101 175.595C380.328 173.823 377.925 172.828 375.419 172.828Z" fill="#35A7FF"/>
<path d="M423.733 186.305H12.9229V187.559H423.733V186.305Z" fill="#35A7FF"/>
<path d="M339.413 101.185C339.413 103.394 337.622 105.185 335.413 105.185H252.491C250.282 105.185 248.491 103.394 248.491 101.185V57.4184C248.491 55.2093 250.282 53.4184 252.491 53.4184H335.413C337.622 53.4184 339.413 55.2093 339.413 57.4184V101.185ZM249.392 100.284C249.392 102.493 251.183 104.284 253.392 104.284H334.513C336.722 104.284 338.513 102.493 338.513 100.284V58.3187C338.513 56.1096 336.722 54.3187 334.513 54.3187H253.392C251.183 54.3187 249.392 56.1096 249.392 58.3187V100.284Z" fill="#FD3E60"/>
<path d="M172.873 111.538C172.873 113.747 171.082 115.538 168.873 115.538H95.8538C93.6446 115.538 91.8538 113.747 91.8538 111.538V69.1221C91.8538 66.9129 93.6446 65.1221 95.8538 65.1221H168.873C171.082 65.1221 172.873 66.9129 172.873 69.1221V111.538ZM92.754 110.637C92.754 112.847 94.5448 114.637 96.754 114.637H167.973C170.182 114.637 171.973 112.847 171.973 110.637V70.0224C171.973 67.8132 170.182 66.0224 167.973 66.0224H96.754C94.5448 66.0224 92.754 67.8132 92.754 70.0224V110.637Z" fill="#FD3E60"/>
<path d="M129.706 96.1817L129.628 95.175C129.396 93.0848 130.093 90.8007 132.028 88.4783C133.77 86.4263 134.738 84.9168 134.738 83.1747C134.738 81.2005 133.499 79.8844 131.06 79.8457C129.666 79.84 128.302 80.2585 127.151 81.0458L126.222 78.6069C127.499 77.6776 129.706 77.0582 131.757 77.0582C136.209 77.0582 138.221 79.807 138.221 82.7487C138.221 85.3814 136.75 87.2782 134.892 89.4845C133.189 91.4974 132.57 93.2008 132.686 95.175L132.725 96.1817L129.706 96.1817ZM128.854 101.601C128.833 101.286 128.878 100.969 128.986 100.671C129.094 100.374 129.262 100.102 129.48 99.8725C129.699 99.6433 129.962 99.4619 130.254 99.3396C130.546 99.2174 130.86 99.1571 131.176 99.1625C132.531 99.1625 133.46 100.169 133.46 101.601C133.473 101.912 133.423 102.222 133.313 102.512C133.203 102.803 133.035 103.068 132.82 103.292C132.605 103.517 132.347 103.695 132.061 103.817C131.775 103.939 131.468 104.002 131.157 104.002C130.846 104.002 130.539 103.939 130.253 103.817C129.967 103.695 129.709 103.517 129.494 103.292C129.279 103.068 129.111 102.803 129.001 102.512C128.891 102.222 128.841 101.912 128.854 101.601Z" fill="#FD3E60"/>
<path d="M291.294 84.9282L291.217 83.9215C290.985 81.8313 291.681 79.5472 293.617 77.2248C295.359 75.1728 296.326 73.6633 296.326 71.9212C296.326 69.947 295.088 68.6308 292.649 68.5921C291.254 68.5865 289.891 69.005 288.739 69.7922L287.81 67.3534C289.088 66.4241 291.294 65.8047 293.346 65.8047C297.797 65.8047 299.81 68.5534 299.81 71.4952C299.81 74.1279 298.339 76.0247 296.481 78.231C294.778 80.2439 294.159 81.9473 294.275 83.9215L294.313 84.9282L291.294 84.9282ZM290.443 90.3479C290.422 90.032 290.467 89.7153 290.575 89.4178C290.682 89.1202 290.851 88.8482 291.069 88.619C291.287 88.3898 291.551 88.2083 291.843 88.0861C292.134 87.9639 292.449 87.9036 292.765 87.909C294.12 87.909 295.049 88.9152 295.049 90.3479C295.062 90.6583 295.012 90.9682 294.902 91.2588C294.792 91.5494 294.624 91.8148 294.409 92.039C294.194 92.2632 293.936 92.4416 293.65 92.5634C293.364 92.6853 293.057 92.7481 292.746 92.7481C292.435 92.7481 292.128 92.6853 291.842 92.5634C291.556 92.4416 291.298 92.2632 291.083 92.039C290.867 91.8148 290.7 91.5494 290.59 91.2588C290.48 90.9682 290.43 90.6583 290.443 90.3479Z" fill="#FD3E60"/>
<path d="M217.264 156.262C238.715 156.262 256.104 138.871 256.104 117.418C256.104 95.9657 238.715 78.5748 217.264 78.5748C195.812 78.5748 178.423 95.9657 178.423 117.418C178.423 138.871 195.812 156.262 217.264 156.262Z" fill="#191C1F"/>
<path d="M202.263 170.611L190.651 168.509L194.417 144.263L206.028 146.365L202.263 170.611Z" fill="#191C1F"/>
<path d="M229.25 150.569L217.639 148.467L213.873 169.271L225.484 171.373L229.25 150.569Z" fill="#191C1F"/>
<path d="M233.245 172.507C233.648 170.51 229.66 168.021 224.336 166.946C219.013 165.871 214.371 166.618 213.968 168.615C213.565 170.611 217.554 173.101 222.877 174.176C228.2 175.25 232.842 174.503 233.245 172.507Z" fill="#191C1F"/>
<path d="M209.061 171.88C209.329 169.861 205.181 167.646 199.798 166.932C194.414 166.219 189.833 167.278 189.566 169.297C189.298 171.316 193.446 173.531 198.829 174.244C204.213 174.957 208.794 173.899 209.061 171.88Z" fill="#191C1F"/>
<path d="M219.983 121.193C227.314 121.193 233.257 115.249 233.257 107.917C233.257 100.585 227.314 94.6414 219.983 94.6414C212.651 94.6414 206.708 100.585 206.708 107.917C206.708 115.249 212.651 121.193 219.983 121.193Z" fill="white"/>
<path d="M225.439 107.584C227.883 107.584 229.864 105.602 229.864 103.158C229.864 100.714 227.883 98.7332 225.439 98.7332C222.995 98.7332 221.014 100.714 221.014 103.158C221.014 105.602 222.995 107.584 225.439 107.584Z" fill="#3F3D56"/>
<path d="M186.624 75.1607C186.04 60.7803 198.433 48.5999 214.304 47.9551C230.176 47.3104 243.516 58.4454 244.1 72.8258C244.684 87.2063 233.651 90.4737 217.78 91.1184C201.908 91.7632 187.208 89.5412 186.624 75.1607Z" fill="white"/>
<path d="M254.49 116.285C264.944 113.888 272.81 109.285 272.057 106.002C271.305 102.72 262.22 102.002 251.766 104.399C241.311 106.795 233.446 111.399 234.198 114.681C234.951 117.963 244.035 118.681 254.49 116.285Z" fill="#191C1F"/>
<path d="M178.247 128.965C188.702 126.568 196.567 121.965 195.814 118.682C195.062 115.4 185.977 114.682 175.523 117.079C165.068 119.475 157.203 124.079 157.955 127.361C158.708 130.643 167.793 131.361 178.247 128.965Z" fill="#191C1F"/>
<path d="M206.597 132.726C206.39 133.87 206.41 135.043 206.656 136.179C206.903 137.315 207.37 138.391 208.033 139.346C208.695 140.301 209.539 141.116 210.516 141.745C211.493 142.374 212.585 142.805 213.728 143.012C214.872 143.219 216.045 143.198 217.181 142.952C218.317 142.706 219.393 142.238 220.348 141.576C221.303 140.913 222.118 140.069 222.747 139.092C223.376 138.115 223.806 137.023 224.013 135.879C224.884 131.07 221.165 129.368 216.356 128.497C211.546 127.626 207.467 127.916 206.597 132.726Z" fill="white"/>
<path d="M131.422 5.90686H71.5576C70.453 5.90686 69.5576 6.80229 69.5576 7.90686V64.661C69.5576 65.7656 70.453 66.661 71.5576 66.661H131.422C132.527 66.661 133.422 65.7656 133.422 64.661V7.90686C133.422 6.80229 132.527 5.90686 131.422 5.90686Z" fill="#E1EFFF"/>
<path d="M126.164 13.1647H76.8147V50.9055H126.164V13.1647Z" fill="white"/>
<path d="M103.609 55.3579H76.7656V56.7708H103.609V55.3579Z" fill="#D9E2EF"/>
<path d="M103.609 59.5966H76.7656V61.0095H103.609V59.5966Z" fill="#D9E2EF"/>
<path d="M85.596 37.6968C88.717 37.6968 91.2471 35.1665 91.2471 32.0453C91.2471 28.924 88.717 26.3937 85.596 26.3937C82.4749 26.3937 79.9448 28.924 79.9448 32.0453C79.9448 35.1665 82.4749 37.6968 85.596 37.6968Z" fill="#3F3D56"/>
<path d="M101.489 37.6968C104.61 37.6968 107.14 35.1665 107.14 32.0453C107.14 28.924 104.61 26.3937 101.489 26.3937C98.3682 26.3937 95.8381 28.924 95.8381 32.0453C95.8381 35.1665 98.3682 37.6968 101.489 37.6968Z" fill="#35A7FF"/>
<path d="M117.384 37.6968C120.505 37.6968 123.035 35.1665 123.035 32.0453C123.035 28.924 120.505 26.3937 117.384 26.3937C114.263 26.3937 111.732 28.924 111.732 32.0453C111.732 35.1665 114.263 37.6968 117.384 37.6968Z" fill="#D9E2EF"/>
<path d="M161.799 123.545H101.934C100.83 123.545 99.9341 124.44 99.9341 125.545V182.299C99.9341 183.404 100.83 184.299 101.934 184.299H161.799C162.903 184.299 163.799 183.404 163.799 182.299V125.545C163.799 124.44 162.903 123.545 161.799 123.545Z" fill="#E1EFFF"/>
<path d="M156.541 130.803H107.191V168.543H156.541V130.803Z" fill="white"/>
<path d="M135.351 137.005H118.05V154.307H135.351V137.005Z" fill="#35A7FF"/>
<path d="M124.674 141.332V162.341H145.682V141.332H124.674ZM144.771 161.43H125.585V142.243H144.771V161.43Z" fill="#3F3D56"/>
<path d="M133.985 172.289H107.142V173.702H133.985V172.289Z" fill="#D9E2EF"/>
<path d="M328.075 105.356H268.21C267.106 105.356 266.21 106.252 266.21 107.356V164.111C266.21 165.215 267.106 166.111 268.21 166.111H328.075C329.179 166.111 330.075 165.215 330.075 164.111V107.356C330.075 106.252 329.179 105.356 328.075 105.356Z" fill="#E1EFFF"/>
<path d="M322.817 112.614H273.467V150.355H322.817V112.614Z" fill="white"/>
<path d="M303.45 142.16H292.834V145.306H303.45V142.16Z" fill="#D9E2EF"/>
<path d="M316.285 117.663H279.999V119.012H316.285V117.663Z" fill="#D9E2EF"/>
<path d="M316.285 121.933H279.999V123.282H316.285V121.933Z" fill="#D9E2EF"/>
<path d="M316.285 126.203H279.999V127.552H316.285V126.203Z" fill="#D9E2EF"/>
<path d="M316.285 130.473H279.999V131.822H316.285V130.473Z" fill="#D9E2EF"/>
<path d="M316.285 134.743H279.999V136.092H316.285V134.743Z" fill="#D9E2EF"/>
<path d="M300.262 154.101H273.419V155.514H300.262V154.101Z" fill="#D9E2EF"/>
<path d="M310.858 157.633H273.419V159.046H310.858V157.633Z" fill="#D9E2EF"/>
</g>
<defs>
<clipPath id="clip0">
<rect width="423.733" height="196" fill="white"/>
</clipPath>
</defs>
</svg>
