<svg width="320" height="256" viewBox="0 0 320 256" fill="none" xmlns="http://www.w3.org/2000/svg">
<g clip-path="url(#clip0)">
<path d="M103.223 10.3897L103.223 10.3897C98.3943 14.6915 96.3947 19.144 95.8347 23.8398C95.2708 28.569 96.1622 33.5659 97.1833 38.9799C98.1739 44.2289 95.7113 49.0938 91.8883 53.1701C88.0608 57.2511 82.804 60.6176 78.0085 62.9073L78.0085 62.9073C68.9764 67.2177 58.8443 69.3636 48.9043 71.4689C48.632 71.5266 48.3598 71.5842 48.0878 71.6419L47.9841 71.1527L48.0878 71.6419C41.1371 73.1148 34.1287 74.6683 28.2805 78.0869C14.1924 86.3278 10.5144 103.97 16.226 117.955C21.9484 131.966 35.0637 142.777 49.0815 151.52C81.0098 171.423 119.117 183.08 157.973 188.346C171.877 190.234 186.014 191.327 199.966 189.981C219.526 188.089 238.144 181.448 255.412 173.156L255.629 173.607L255.412 173.156C265.134 168.489 274.563 163.243 282.33 156.415L282.66 156.79L282.33 156.415C305.138 136.369 309.985 102.675 293.604 78.3671C285.541 66.4043 273.295 57.0227 260.787 48.2752C226.259 24.1277 186.407 2.83075 142.294 0.637126L103.223 10.3897ZM103.223 10.3897C112.926 1.74291 128.229 -0.0536213 142.294 0.637111L103.223 10.3897Z" stroke="#35A7FF"/>
<path d="M65.3514 41.4495C65.3514 46.7459 61.0578 51.0395 55.7614 51.0395C50.4649 51.0395 46.1713 46.7459 46.1713 41.4495C46.1713 36.153 50.4649 31.8594 55.7614 31.8594C61.0578 31.8594 65.3514 36.153 65.3514 41.4495Z" stroke="#FD3E60"/>
<path d="M40.3697 17.4254C40.3697 20.599 37.797 23.1717 34.6234 23.1717C31.4499 23.1717 28.8772 20.599 28.8772 17.4254C28.8772 14.2519 31.4499 11.6792 34.6234 11.6792C37.797 11.6792 40.3697 14.2519 40.3697 17.4254Z" stroke="#35A7FF"/>
<path opacity="0.1" d="M296.479 40.4885C298.602 40.4885 300.323 38.7675 300.323 36.6446C300.323 34.5217 298.602 32.8008 296.479 32.8008C294.356 32.8008 292.635 34.5217 292.635 36.6446C292.635 38.7675 294.356 40.4885 296.479 40.4885Z" fill="#35A7FF"/>
<path opacity="0.1" d="M220.995 255.375C235.898 255.375 247.979 254.171 247.979 252.685C247.979 251.199 235.898 249.994 220.995 249.994C206.093 249.994 194.011 251.199 194.011 252.685C194.011 254.171 206.093 255.375 220.995 255.375Z" fill="#35A7FF"/>
<path d="M68.5485 156.095L68.43 162.486L67.4818 214.285L59.3649 233.292L31.3914 233.613V159.039L60.5854 156.726L68.5485 156.095Z" fill="#F0F7FF"/>
<path opacity="0.1" d="M68.5485 156.095L68.43 162.486L67.4818 214.285L59.3649 233.292L31.3914 233.613V159.039L60.5854 156.726L68.5485 156.095Z" fill="#191C1F"/>
<path d="M68.5485 156.095L68.4299 162.486L67.4818 214.285L59.3649 233.292L61.5014 162.607L61.495 162.562L60.5853 156.726L68.5485 156.095Z" fill="#F0F7FF"/>
<path opacity="0.1" d="M60.5854 156.726L68.5485 156.095L68.43 162.486L61.4951 162.562L31.3914 162.899V159.039L60.5854 156.726Z" fill="#191C1F"/>
<path d="M320 159.039V233.184H313.488L287.433 214.179V156.947L310.711 154.76L312.139 155.416L313.488 156.038L320 159.039Z" fill="#F0F7FF"/>
<path opacity="0.1" d="M320 155.416H313.488V233.184H320V155.416Z" fill="#191C1F"/>
<path opacity="0.1" d="M320 155.416V159.68L313.488 159.753L287.433 160.042V156.947L310.711 154.76L312.139 155.416L313.488 156.038V155.416H320Z" fill="#191C1F"/>
<path d="M320 152.998V159.039L0 162.607V154.92L30.1101 148.834L292.132 146.912L320 152.998Z" fill="#F0F7FF"/>
<path opacity="0.1" d="M320 152.998V159.039L0 162.607V154.92L320 152.998Z" fill="#191C1F"/>
<path d="M221.854 62.4529H124.387C120.35 62.4529 117.077 65.7255 117.077 69.7626V142.171C117.077 146.208 120.35 149.481 124.387 149.481H221.854C225.891 149.481 229.164 146.208 229.164 142.171V69.7626C229.164 65.7255 225.891 62.4529 221.854 62.4529Z" fill="#191C1F"/>
<path d="M220.31 70.304H126.097V141.297H220.31V70.304Z" fill="#F0F7FF"/>
<path d="M122.42 107.343C123.273 107.343 123.964 106.651 123.964 105.799C123.964 104.946 123.273 104.255 122.42 104.255C121.567 104.255 120.876 104.946 120.876 105.799C120.876 106.651 121.567 107.343 122.42 107.343Z" fill="#F0F7FF"/>
<path d="M224.484 108.512C225.89 108.512 227.03 107.372 227.03 105.965C227.03 104.559 225.89 103.419 224.484 103.419C223.077 103.419 221.937 104.559 221.937 105.965C221.937 107.372 223.077 108.512 224.484 108.512Z" fill="#F0F7FF"/>
<path d="M183.361 106.074L171.314 98.7516C171.063 98.613 170.781 98.542 170.495 98.5456C170.209 98.5492 169.929 98.6273 169.682 98.7721C169.436 98.9169 169.231 99.1236 169.089 99.3716C168.946 99.6196 168.871 99.9005 168.87 100.187V114.428C168.871 114.714 168.946 114.995 169.089 115.243C169.231 115.491 169.436 115.698 169.682 115.843C169.929 115.987 170.209 116.065 170.495 116.069C170.781 116.073 171.063 116.002 171.314 115.863L183.361 108.951C183.616 108.807 183.829 108.598 183.977 108.346C184.125 108.093 184.203 107.805 184.203 107.512C184.203 107.219 184.125 106.932 183.977 106.679C183.829 106.426 183.616 106.218 183.361 106.074ZM192.42 107.307C192.42 103.95 191.424 100.667 189.558 97.8754C187.693 95.0836 185.042 92.9076 181.939 91.6226C178.837 90.3377 175.424 90.0015 172.131 90.6565C168.837 91.3116 165.812 92.9285 163.438 95.3028C161.064 97.677 159.447 100.702 158.792 103.995C158.137 107.288 158.473 110.702 159.758 113.804C161.043 116.906 163.219 119.558 166.011 121.423C168.803 123.289 172.085 124.284 175.443 124.284C179.945 124.284 184.263 122.496 187.447 119.312C190.631 116.128 192.42 111.81 192.42 107.307ZM161.752 107.307C161.752 104.6 162.555 101.953 164.059 99.7013C165.564 97.4499 167.702 95.6951 170.204 94.6589C172.705 93.6227 175.458 93.3516 178.114 93.8799C180.769 94.4081 183.209 95.712 185.123 97.6267C187.038 99.5413 188.342 101.981 188.87 104.636C189.398 107.292 189.127 110.045 188.091 112.546C187.055 115.048 185.3 117.186 183.049 118.691C180.797 120.195 178.15 120.998 175.443 120.998C173.645 120.998 171.864 120.644 170.203 119.957C168.542 119.269 167.032 118.26 165.761 116.989C164.49 115.718 163.481 114.208 162.793 112.547C162.106 110.886 161.752 109.105 161.752 107.307Z" fill="#FD3E60"/>
<path d="M257.499 163.088C257.435 162.696 257.313 162.316 257.137 161.96C257.38 161.131 257.537 160.621 257.537 160.621C257.537 160.621 257.537 160.5 257.499 160.301C257.308 159.127 256.698 158.063 255.782 157.304C254.866 156.545 253.707 156.145 252.518 156.175C250.596 156.211 246.951 156.339 242.908 156.794C243.139 155.176 243.414 153.241 243.703 151.249L244.231 151.307C244.353 151.307 244.481 151.307 244.609 151.326H244.779C245.2 151.352 245.617 151.225 245.951 150.967C246.033 150.887 246.094 150.789 246.129 150.68C246.163 150.571 246.17 150.455 246.149 150.342C246.128 150.23 246.079 150.125 246.007 150.036C245.935 149.947 245.842 149.877 245.737 149.833C246.209 149.88 246.686 149.809 247.124 149.625C247.562 149.442 247.947 149.152 248.245 148.782C248.517 148.402 248.663 147.946 248.663 147.479C248.663 147.011 248.517 146.555 248.245 146.175C247.569 145.214 246.137 144.573 246.06 143.443C246.019 142.802 246.448 142.225 246.784 141.659C247.595 140.243 247.919 138.601 247.706 136.984C247.494 135.367 246.757 133.864 245.609 132.706C245.158 132.258 244.683 131.836 244.186 131.44C243.482 128.852 242.745 126.539 242.527 126.466C242.245 126.373 241.762 125.764 241.3 125.242C241.343 124.802 241.335 124.358 241.278 123.919C240.938 121.677 238.715 120.075 237.492 118.096C236.268 116.116 236.047 113.691 236.361 111.423C236.675 109.156 237.466 106.961 238.11 104.748C238.59 103.105 238.991 101.359 238.453 99.7286C238.072 98.5658 237.242 97.56 236.387 96.6151C234.333 94.344 231.966 92.2171 229.045 90.8493C227.014 89.8921 224.79 89.4164 222.546 89.4591H222.523L222.171 89.4783L221.921 89.4944L221.671 89.52L221.405 89.5456C221.133 89.5809 220.864 89.6225 220.595 89.6769C218.644 89.2432 216.652 89.0198 214.653 89.0107H214.393C213.801 88.9756 213.21 89.1148 212.696 89.4111C211.985 89.9076 211.895 90.7981 211.68 91.5732C211.295 92.8705 210.482 93.9994 209.374 94.7764C208.608 95.3274 207.708 95.7374 206.978 96.314C206.248 96.8906 205.678 97.7554 205.873 98.6075C206.036 99.3218 206.703 99.8535 207.475 100.177C207.382 100.292 207.286 100.404 207.196 100.523C207.346 100.584 207.516 100.638 207.654 100.683C208.615 100.968 209.65 101.003 210.623 101.263C210.891 101.335 211.155 101.423 211.411 101.529C210.545 103.158 210.093 104.975 210.095 106.82C210.098 108.87 210.654 110.88 211.704 112.64C212.753 114.399 214.258 115.844 216.059 116.821C216.059 116.93 216.059 117.036 216.059 117.141C216.158 120.485 215.905 124.553 214.195 125.242C212.484 125.931 210.848 126.709 209.839 127.212L209.518 127.382C209.252 127.26 208.986 127.132 208.727 126.997C208.727 126.997 207.366 126.837 207.603 127.875C207.603 127.875 203.487 127.235 201.228 128.993C198.97 130.752 195.264 134.422 194.537 135.38C193.81 136.338 188.188 138.433 188.188 138.433C188.188 138.433 189.959 135.957 189.194 132.923C189.194 132.923 188.348 129.265 188.752 127.798C189.155 126.331 190.203 120.886 190.203 120.886C190.203 120.886 190.35 115.139 187.214 112.503C184.078 109.867 181.897 107.698 183.108 110.261C183.637 111.435 184.229 112.581 184.882 113.691C184.882 113.691 177.384 115.472 180.046 118.253C182.707 121.033 183.431 121.036 183.431 121.036C183.431 121.036 182.544 127.901 182.381 129.179C182.217 130.457 180.779 140.195 180.779 140.195C180.779 140.195 180.699 144.826 181.506 145.544C181.506 145.544 182.035 148.526 185.376 148.427C185.376 148.427 191.744 148.267 193.518 147.549C195.293 146.832 201.417 142.997 202.064 143.238C202.111 143.257 202.154 143.285 202.189 143.321C202.224 143.351 202.256 143.383 202.285 143.417C201.645 144.836 200.126 149.654 200.773 152.021C200.773 152.021 200.21 158.725 203.595 160.881C203.595 160.881 208.512 169.184 206.658 173.652C206.51 174.014 206.379 174.347 206.257 174.671C203.442 172.336 199.146 170.186 192.586 168.998C191.917 168.876 191.25 168.729 190.59 168.569C188.726 168.117 183.598 167.704 181.157 175.811C180.588 177.696 179.864 179.53 178.992 181.295C178.031 183.239 176.964 186.026 176.942 188.79C176.887 192.666 178.889 196.507 186.154 197.916C186.234 200.799 186.564 204.233 187.551 206.703C189.565 211.732 192.791 219.874 192.791 219.874C192.791 219.874 196.661 228.177 196.904 231.528C197.061 233.722 197.292 236.598 197.131 238.575C197.131 238.696 197.112 238.812 197.099 238.927C196.767 239.285 196.405 239.614 196.017 239.91C195.453 240.231 193.598 242.226 193.598 242.704C193.602 243.161 193.643 243.617 193.72 244.068C192.842 244.834 192.362 245.67 192.362 246.503C192.362 250.833 204.653 254.344 219.813 254.344C234.974 254.344 247.262 250.82 247.262 246.503C247.262 242.55 237.011 239.283 223.692 238.744C226.47 237.636 228.936 236.473 229.958 235.541C230.177 235.37 230.345 235.142 230.441 234.881L227.863 228.895C227.863 228.895 227.661 228.939 227.363 229.026L227.184 228.757C226.037 227.011 223.83 223.532 223.83 222.587C223.83 222.238 223.247 220.006 222.401 216.947V207.129C230.813 208.41 241.653 206.668 241.653 206.668L241.701 206.642H241.912V206.527C243.37 205.719 250.66 201.45 252.822 195.786C253.463 194.133 252.665 191.766 251.08 189.236C252.188 186.484 254.924 179.376 254.651 176.541C254.651 176.391 254.632 176.221 254.632 176.055C254.658 175.765 254.669 175.474 254.664 175.183C254.984 171.019 257.547 163.411 257.547 163.411C257.547 163.411 257.531 163.28 257.499 163.088ZM203.045 144.586C203.628 145.611 204.252 146.921 204.499 147.453C204.499 147.453 203.647 145.884 203.061 144.586H203.045ZM203.653 234.308L203.592 234.33V234.01C203.557 233.175 203.578 232.338 203.653 231.505C203.662 231.056 203.568 230.611 203.378 230.205C202.39 227.724 201.73 225.126 201.414 222.475C201.094 219.682 200.828 216.636 200.994 215.861C201.244 214.672 201.449 205.671 201.139 201.235L206.097 202.35L211.863 214.105C211.863 214.105 215.572 219.846 216.722 224.375V228.911C216.386 230.262 215.798 231.538 214.989 232.671C214.224 233.719 213.477 234.779 212.785 235.874C212.574 236.214 212.34 236.563 212.106 236.89C212.029 236.89 208.24 237.111 207.596 237.822C207.199 238.261 206.507 238.953 206.392 239.648L206.229 239.673C205.485 237.46 203.669 234.308 203.669 234.308H203.653Z" fill="url(#paint0_linear)"/>
<path opacity="0.1" d="M228.046 230.192L226.764 234.356L221.319 239.081L213.311 241.381C213.311 241.381 209.547 239.321 210.828 238.921C211.184 238.808 211.607 238.402 212.036 237.87C211.588 239.504 215.153 237.399 215.153 237.399C215.153 237.399 224.362 230.832 225.323 230.112C225.953 229.694 226.645 229.377 227.373 229.173C227.773 229.798 228.046 230.192 228.046 230.192Z" fill="#191C1F"/>
<path d="M228.046 230.192L226.764 234.356L221.319 239.081L213.311 241.381C213.311 241.381 209.547 239.321 210.828 238.921C211.184 238.808 211.607 238.402 212.036 237.87C212.422 237.377 212.78 236.861 213.106 236.326C213.791 235.224 214.534 234.161 215.294 233.123C216.401 231.546 217.096 229.717 217.315 227.802C217.875 223.398 212.19 214.509 212.19 214.509L201.859 193.288L216.274 195.049C216.274 195.049 224.042 221.716 224.042 222.997C224.042 223.958 226.233 227.434 227.373 229.186C227.773 229.798 228.046 230.192 228.046 230.192Z" fill="#FDC2CC"/>
<path d="M220.05 254.847C235.109 254.847 247.316 251.326 247.316 246.983C247.316 242.64 235.109 239.119 220.05 239.119C204.992 239.119 192.785 242.64 192.785 246.983C192.785 251.326 204.992 254.847 220.05 254.847Z" fill="#F0F7FF"/>
<path d="M230.608 235.317C230.511 235.577 230.345 235.806 230.128 235.98C228.148 237.796 220.746 240.497 216.172 241.964C214.973 242.382 213.75 242.73 212.51 243.005C211.389 243.085 209.067 242.364 207.465 241.381C205.864 240.397 207.305 239.001 207.952 238.28C208.599 237.559 212.437 237.345 212.437 237.345C210.595 240.41 215.156 237.719 215.156 237.719C215.156 237.719 224.365 231.153 225.326 230.432C226.287 229.711 228.049 229.311 228.049 229.311L230.608 235.317Z" fill="#35A7FF"/>
<path opacity="0.3" d="M230.608 235.317C230.511 235.577 230.345 235.806 230.128 235.98C228.148 237.796 220.746 240.497 216.172 241.964C214.973 242.382 213.75 242.73 212.51 243.005C211.389 243.085 209.067 242.364 207.465 241.381C205.864 240.397 207.305 239.001 207.952 238.28C208.599 237.559 212.437 237.345 212.437 237.345C210.595 240.41 215.156 237.719 215.156 237.719C215.156 237.719 224.365 231.153 225.326 230.432C226.287 229.711 228.049 229.311 228.049 229.311L230.608 235.317Z" fill="#191C1F"/>
<path opacity="0.1" d="M230.128 235.986C228.148 237.803 220.746 240.503 216.172 241.97C220.316 238.459 227.267 236.624 230.128 235.986Z" fill="#191C1F"/>
<path opacity="0.1" d="M220.05 246.022C223.063 246.022 225.506 245.318 225.506 244.449C225.506 243.581 223.063 242.876 220.05 242.876C217.038 242.876 214.595 243.581 214.595 244.449C214.595 245.318 217.038 246.022 220.05 246.022Z" fill="#191C1F"/>
<path d="M222.623 202.968H217.017V244.449H222.623V202.968Z" fill="#F0F7FF"/>
<path opacity="0.1" d="M222.623 205.024V209.829C221.502 209.483 218.942 208.026 217.017 206.879V202.965H218.186L222.623 205.024Z" fill="#191C1F"/>
<path d="M209.416 184.908C209.416 184.908 227.924 180.145 232.53 176.58C237.136 173.015 255.225 189.79 252.835 196.119C250.446 202.449 241.746 207.033 241.746 207.033C241.746 207.033 217.686 210.947 213.59 202.782C209.493 194.617 209.416 184.908 209.416 184.908Z" fill="#191C1F"/>
<path opacity="0.1" d="M209.416 184.908C209.416 184.908 227.924 180.145 232.53 176.58C237.136 173.015 255.225 189.79 252.835 196.119C250.446 202.449 241.746 207.033 241.746 207.033C241.746 207.033 217.686 210.947 213.59 202.782C209.493 194.617 209.416 184.908 209.416 184.908Z" fill="#191C1F"/>
<path d="M207.814 182.986C207.814 182.986 226.322 178.223 230.929 174.658C235.535 171.093 253.623 187.868 251.234 194.197C248.844 200.527 240.144 205.111 240.144 205.111C240.144 205.111 216.085 209.025 211.988 200.86C207.891 192.695 207.814 182.986 207.814 182.986Z" fill="#191C1F"/>
<path d="M190.648 139.307L188.646 138.58C188.646 138.58 190.408 136.098 189.649 133.055C189.649 133.055 188.806 129.384 189.207 127.897C189.607 126.411 190.648 120.963 190.648 120.963C190.648 120.963 190.795 115.197 187.679 112.554C184.562 109.912 182.4 107.749 183.601 110.312C184.126 111.491 184.714 112.64 185.363 113.755C185.363 113.755 177.915 115.54 180.558 118.333C183.201 121.126 183.921 121.123 183.921 121.123C183.921 121.123 183.041 128.01 182.88 129.291C182.72 130.572 181.279 140.342 181.279 140.342C181.279 140.342 181.199 144.987 181.999 145.707C182.177 146.574 182.667 147.346 183.375 147.878C184.083 148.409 184.961 148.662 185.843 148.59C186.414 148.581 193.211 141.069 190.648 139.307Z" fill="#FDC2CC"/>
<path d="M239.016 124.573V129.057L234.372 130.572L226.46 136.396L224.362 137.94L214.992 134.176L209.066 127.93C209.066 127.93 209.355 127.773 209.854 127.513L210.175 127.343C211.177 126.84 212.757 126.062 214.502 125.367C216.248 124.672 216.453 120.597 216.354 117.24V116.92C216.274 114.566 216.033 112.641 216.033 112.641C216.033 112.641 217.01 112.455 218.433 112.243C222.376 111.657 229.733 110.866 229.086 113.281C228.898 114.102 228.898 114.956 229.086 115.777C229.106 115.866 229.125 115.959 229.147 116.049C229.814 118.961 231.876 122.01 231.876 122.01L238.283 124.316L238.462 124.38L239.016 124.573Z" fill="#FDC2CC"/>
<path d="M239.016 125.934V124.573C239.52 124.486 240.035 124.486 240.538 124.573C241.099 124.733 242.162 126.415 242.642 126.575C243.123 126.735 246.064 137.706 245.743 138.667C245.423 139.628 242.396 161.323 242.396 161.323L236.294 168.05L235.093 149.551L239.016 138.58V125.934Z" fill="#FDC2CC"/>
<path d="M207.385 176.304C207.385 176.304 201.808 177.506 202.516 179.267C203.224 181.029 206.344 181.109 206.344 181.109L207.385 176.304Z" fill="#FDC2CC"/>
<path d="M215.153 140.733L210.908 149.878L205.863 153.562L204.982 147.869C204.982 147.869 203.278 144.106 202.545 143.468C202.509 143.432 202.467 143.404 202.42 143.385C201.779 143.145 195.693 146.989 193.931 147.709C192.17 148.43 185.843 148.59 185.843 148.59L188.646 138.58C188.646 138.58 194.252 136.498 194.972 135.537C195.693 134.576 199.377 130.892 201.619 129.131C203.861 127.369 207.952 128.01 207.952 128.01L208.016 128.035L209.066 128.49L212.11 135.938L215.153 140.733Z" fill="#FDC2CC"/>
<path d="M204.022 231.96C203.946 232.795 203.926 233.634 203.961 234.471C203.983 235.365 204.022 236.124 204.022 236.124L202.18 239.968C202.18 239.968 195.853 242.05 196.894 241.169C197.256 240.865 197.442 240.074 197.535 239.026C197.692 237.047 197.465 234.161 197.308 231.96C197.067 228.597 193.223 220.268 193.223 220.268C193.223 220.268 190.02 212.1 188.018 207.055C186.016 202.01 186.737 192.881 186.737 192.881C186.737 192.881 187.057 185.994 188.499 183.912C189.94 181.83 195.546 181.109 195.546 181.109L198.176 189.831C198.176 189.831 200.338 198 201.139 199.201C201.939 200.402 201.699 214.736 201.379 216.258C201.215 217.036 201.491 220.102 201.798 222.895C202.112 225.552 202.767 228.157 203.746 230.647C203.937 231.058 204.031 231.507 204.022 231.96Z" fill="#FDC2CC"/>
<path opacity="0.1" d="M204.022 236.124L202.18 239.968C202.18 239.968 195.853 242.05 196.895 241.169C197.256 240.865 197.442 240.074 197.535 239.026C197.763 238.799 198.006 238.549 198.256 238.293C199.866 236.624 201.816 235.32 203.974 234.471C203.983 235.365 204.022 236.124 204.022 236.124Z" fill="#191C1F"/>
<path d="M206.911 241.845C206.912 241.86 206.912 241.875 206.911 241.89C206.59 243.411 201.305 245.494 201.305 245.494C201.305 245.494 197.942 246.054 196.02 246.535C195.873 246.574 195.72 246.588 195.568 246.576C194.085 246.464 194.018 243.61 194.018 243.171C194.018 242.732 195.86 240.689 196.42 240.368C197.054 239.843 197.649 239.272 198.201 238.661C199.845 236.959 201.835 235.629 204.037 234.763C204.037 234.763 207.167 240.266 206.911 241.845Z" fill="#35A7FF"/>
<path opacity="0.3" d="M206.911 241.845C206.912 241.86 206.912 241.875 206.911 241.89C206.59 243.411 201.305 245.493 201.305 245.493C201.305 245.493 197.942 246.054 196.02 246.535C195.873 246.574 195.72 246.588 195.568 246.576C194.085 246.464 194.018 243.61 194.018 243.171C194.018 242.732 195.86 240.689 196.42 240.368C197.064 239.836 197.668 239.257 198.227 238.635C199.836 236.959 201.787 235.648 203.948 234.792L204.037 234.756C204.037 234.756 207.167 240.266 206.911 241.845Z" fill="#191C1F"/>
<path opacity="0.1" d="M206.911 241.845C206.913 241.86 206.913 241.875 206.911 241.89C206.591 243.411 201.305 245.494 201.305 245.494C201.305 245.494 197.942 246.054 196.02 246.535C195.873 246.574 195.72 246.588 195.568 246.576C197.311 245.381 201.536 242.515 202.106 242.45C202.676 242.386 205.485 241.579 206.911 241.845Z" fill="#191C1F"/>
<path opacity="0.1" d="M229.16 116.049C227.181 117.679 225.361 117.445 222.597 117.445C220.598 117.445 218 118.147 216.364 117.247C216.296 114.745 216.043 112.641 216.043 112.641C216.043 112.641 229.977 109.998 229.096 113.281C228.895 114.195 228.917 115.145 229.16 116.049Z" fill="#191C1F"/>
<path d="M233.331 106.888C233.331 109.925 232.124 112.838 229.977 114.985C227.829 117.133 224.917 118.339 221.88 118.339C221.585 118.339 221.29 118.339 221.002 118.307C218.781 118.136 216.659 117.321 214.894 115.961C213.13 114.602 211.8 112.758 211.068 110.654C210.336 108.551 210.233 106.28 210.772 104.118C211.311 101.957 212.468 100 214.102 98.4871C215.737 96.9739 217.777 95.97 219.973 95.5985C222.169 95.227 224.425 95.504 226.467 96.3955C228.508 97.2871 230.244 98.7545 231.464 100.618C232.684 102.482 233.334 104.66 233.334 106.888H233.331Z" fill="#FDC2CC"/>
<path opacity="0.1" d="M212.11 135.944L215.153 140.749L210.909 149.894L205.864 153.578L204.983 147.87C204.983 147.87 203.279 144.106 202.545 143.468C202.757 142.953 202.901 142.716 202.901 142.905C202.901 143.705 204.871 147.309 204.871 147.309C210.957 145.227 209.067 137.139 209.067 137.139C209.067 137.139 208.311 129.932 208.016 128.035L209.067 128.49L212.11 135.944Z" fill="#191C1F"/>
<path opacity="0.1" d="M239.016 124.573V129.057L234.372 130.572L226.46 136.396L224.362 137.94L214.992 134.176L209.066 127.93C209.066 127.93 209.355 127.773 209.854 127.513L210.175 127.343C214.297 129.217 218.759 129.906 221.946 130.153C223.412 130.277 224.884 130.31 226.354 130.252C238.421 128.33 238.779 125.415 238.478 124.38L239.016 124.573Z" fill="#191C1F"/>
<path d="M242.46 197.199C239.44 198.68 236.338 199.99 233.171 201.123C227.645 203.125 215.473 200.482 213.952 200.082C212.43 199.681 200.738 195.037 196.254 193.275C191.769 191.513 190.648 192.955 189.607 192.794C188.566 192.634 187.845 190.632 187.685 190.072C187.525 189.511 190.568 184.626 192.25 182.144C193.932 179.661 198.977 180.142 199.697 179.982C200.418 179.821 205.463 179.982 205.463 179.982C205.463 179.982 205.143 178.38 206.985 173.895C208.826 169.411 203.942 161.083 203.942 161.083C200.578 158.921 201.139 152.194 201.139 152.194C200.338 149.231 202.9 142.424 202.9 143.225C202.9 144.026 204.87 147.629 204.87 147.629C210.957 145.547 209.067 137.459 209.067 137.459C209.067 137.459 208.186 129.051 207.952 128.01C207.718 126.969 209.067 127.129 209.067 127.129C209.327 127.263 209.59 127.391 209.855 127.513C214.07 129.499 218.683 130.223 221.956 130.473C223.422 130.597 224.894 130.63 226.364 130.572C240.993 128.211 238.402 124.448 238.306 124.313L239.017 124.566C244.302 128.41 242.7 141.143 242.7 141.143L240.721 150.647L239.25 157.726C239.25 157.726 244.456 189.277 244.936 190.879C245.417 192.48 242.46 197.199 242.46 197.199Z" fill="#35A7FF"/>
<path opacity="0.1" d="M203.461 182.784C203.141 183.025 199.537 190.472 202.18 192.554C204.822 194.636 203.461 182.784 203.461 182.784Z" fill="#191C1F"/>
<path opacity="0.1" d="M206.023 183.832C206.104 184.072 213.551 195.924 217.635 196.885L206.023 183.832Z" fill="#191C1F"/>
<path opacity="0.1" d="M223.965 90.0452L222.773 90.2983C223.102 90.1772 223.438 90.0776 223.779 90.0004L223.965 90.0452Z" fill="#191C1F"/>
<path opacity="0.1" d="M241.909 141.143L239.667 150.64C238.523 150.118 237.471 149.414 236.553 148.555C235.839 147.876 235.198 147.098 234.279 146.652C233.097 146.079 231.672 146.156 230.33 146.108C228.653 146.045 226.992 145.761 225.39 145.262C224.925 145.145 224.489 144.934 224.109 144.641C223.347 143.968 223.398 142.882 223.468 141.934C223.608 140.091 223.624 138.241 223.516 136.396C223.497 136.05 223.472 135.704 223.443 135.358C223.315 133.811 222.898 132.017 221.316 131.354C220.502 131.033 219.532 131.059 218.753 130.671C218.641 130.615 218.534 130.548 218.433 130.473C217.28 129.666 217.174 128.048 217.219 126.687C217.287 124.816 217.352 122.944 217.414 121.071C217.473 120.148 217.452 119.221 217.353 118.301C217.276 117.69 217.108 117.094 216.854 116.533C216.159 115.046 214.711 113.807 214.451 112.237C214.437 112.164 214.427 112.09 214.422 112.016C214.288 110.613 215.172 109.306 215.483 107.926C216.104 105.148 214.016 102.105 210.944 101.308C209.983 101.058 208.951 101.01 207.994 100.725C207.84 100.679 207.69 100.626 207.542 100.565C209.861 97.4703 213.836 95.4395 218.35 95.4395C225.502 95.4395 231.303 100.565 231.303 106.891C231.303 110.478 229.436 113.678 226.518 115.78C226.537 115.869 226.559 115.962 226.585 116.052C227.338 118.964 229.673 122.013 229.673 122.013L236.925 124.32L237.732 124.576C243.722 128.416 241.909 141.143 241.909 141.143Z" fill="#191C1F"/>
<path opacity="0.1" d="M245.846 150.342C245.776 150.342 245.708 150.326 245.641 150.314C245.711 150.306 245.781 150.316 245.846 150.342Z" fill="#191C1F"/>
<path d="M221.079 89.7281C219.074 89.2625 217.024 89.0229 214.967 89.0138C214.297 89.0138 213.58 89.049 213.045 89.4174C212.337 89.9139 212.247 90.8108 212.036 91.586C211.653 92.8804 210.847 94.0086 209.746 94.7892C208.986 95.3433 208.093 95.7501 207.366 96.3331C206.638 96.9161 206.084 97.781 206.267 98.633C206.449 99.4851 207.407 100.142 208.368 100.414C209.329 100.686 210.351 100.734 211.318 100.997C214.39 101.795 216.476 104.841 215.854 107.612C215.534 108.992 214.659 110.299 214.794 111.702C214.951 113.377 216.498 114.668 217.225 116.222C217.888 117.638 217.843 119.226 217.792 120.758L217.597 126.376C217.545 127.856 217.674 129.637 219.134 130.361C219.916 130.745 220.89 130.703 221.697 131.043C223.279 131.703 223.696 133.5 223.824 135.044C224.007 137.232 224.015 139.431 223.849 141.62C223.776 142.581 223.724 143.654 224.49 144.327C224.869 144.621 225.305 144.833 225.771 144.948C227.373 145.447 229.034 145.731 230.711 145.794C232.056 145.845 233.478 145.768 234.66 146.338C235.579 146.784 236.22 147.565 236.934 148.241C238.982 150.115 241.593 151.258 244.359 151.492C244.952 151.544 245.625 151.531 246.038 151.15C246.451 150.768 246.208 149.945 245.618 149.993C246.119 150.077 246.633 150.026 247.107 149.845C247.581 149.663 247.999 149.358 248.315 148.962C248.585 148.579 248.729 148.122 248.729 147.653C248.729 147.185 248.585 146.728 248.315 146.345C247.646 145.384 246.224 144.743 246.147 143.603C246.105 142.962 246.531 142.382 246.864 141.812C247.667 140.393 247.988 138.751 247.778 137.133C247.567 135.516 246.838 134.01 245.698 132.843C244.196 131.29 241.944 130.111 241.419 128.118C241.07 126.786 241.598 125.386 241.396 124.031C241.076 121.789 238.856 120.187 237.636 118.189C236.415 116.19 236.201 113.771 236.512 111.497C236.822 109.223 237.61 107.013 238.251 104.802C238.728 103.153 239.122 101.401 238.59 99.7637C238.209 98.601 237.389 97.592 236.537 96.6406C234.497 94.3631 232.149 92.2298 229.247 90.8749C226.345 89.5199 222.808 88.9946 219.727 89.9972" fill="#2F2E41"/>
<path opacity="0.1" d="M221.079 89.7281C219.074 89.2625 217.024 89.0229 214.967 89.0138C214.297 89.0138 213.58 89.049 213.045 89.4174C212.337 89.9139 212.247 90.8108 212.036 91.586C211.653 92.8804 210.847 94.0086 209.746 94.7892C208.986 95.3433 208.093 95.7501 207.366 96.3331C206.638 96.9161 206.084 97.781 206.267 98.633C206.449 99.4851 207.407 100.142 208.368 100.414C209.329 100.686 210.351 100.734 211.318 100.997C214.39 101.795 216.476 104.841 215.854 107.612C215.534 108.992 214.659 110.299 214.794 111.702C214.951 113.377 216.498 114.668 217.225 116.222C217.888 117.638 217.843 119.226 217.792 120.758L217.597 126.376C217.545 127.856 217.674 129.637 219.134 130.361C219.916 130.745 220.89 130.703 221.697 131.043C223.279 131.703 223.696 133.5 223.824 135.044C224.007 137.232 224.015 139.431 223.849 141.62C223.776 142.581 223.724 143.654 224.49 144.327C224.869 144.621 225.305 144.833 225.771 144.948C227.373 145.447 229.034 145.731 230.711 145.794C232.056 145.845 233.478 145.768 234.66 146.338C235.579 146.784 236.22 147.565 236.934 148.241C238.982 150.115 241.593 151.258 244.359 151.492C244.952 151.544 245.625 151.531 246.038 151.15C246.451 150.768 246.208 149.945 245.618 149.993C246.119 150.077 246.633 150.026 247.107 149.845C247.581 149.663 247.999 149.358 248.315 148.962C248.585 148.579 248.729 148.122 248.729 147.653C248.729 147.185 248.585 146.728 248.315 146.345C247.646 145.384 246.224 144.743 246.147 143.603C246.105 142.962 246.531 142.382 246.864 141.812C247.667 140.393 247.988 138.751 247.778 137.133C247.567 135.516 246.838 134.01 245.698 132.843C244.196 131.29 241.944 130.111 241.419 128.118C241.07 126.786 241.598 125.386 241.396 124.031C241.076 121.789 238.856 120.187 237.636 118.189C236.415 116.19 236.201 113.771 236.512 111.497C236.822 109.223 237.61 107.013 238.251 104.802C238.728 103.153 239.122 101.401 238.59 99.7637C238.209 98.601 237.389 97.592 236.537 96.6406C234.497 94.3631 232.149 92.2298 229.247 90.8749C226.345 89.5199 222.808 88.9946 219.727 89.9972" fill="#2F2E41"/>
<path opacity="0.1" d="M203.941 161.089C203.941 161.089 206.664 162.13 209.547 159.247C212.43 156.364 203.941 161.089 203.941 161.089Z" fill="#191C1F"/>
<g opacity="0.1">
<path opacity="0.1" d="M222.283 89.6801C222.811 89.575 223.346 89.5076 223.884 89.4783C223.136 89.4326 222.386 89.4562 221.642 89.5488L222.283 89.6801Z" fill="#191C1F"/>
<path opacity="0.1" d="M238.344 148.241C237.626 147.565 236.989 146.784 236.066 146.338C234.887 145.768 233.462 145.845 232.117 145.794C230.44 145.732 228.779 145.448 227.177 144.948C226.712 144.833 226.275 144.621 225.896 144.327C225.134 143.654 225.188 142.571 225.255 141.62C225.421 139.431 225.413 137.232 225.23 135.044C225.098 133.5 224.685 131.703 223.1 131.043C222.289 130.704 221.319 130.745 220.537 130.361C219.076 129.637 218.936 127.856 218.996 126.376C219.063 124.503 219.128 122.632 219.192 120.761C219.246 119.226 219.288 117.638 218.625 116.222C217.898 114.668 216.351 113.381 216.194 111.702C216.062 110.302 216.946 108.992 217.257 107.612C217.878 104.834 215.79 101.795 212.718 100.997C211.757 100.747 210.726 100.696 209.768 100.414C208.81 100.132 207.881 99.5236 207.683 98.6523C207.484 97.781 208.051 96.9354 208.778 96.3492C209.505 95.763 210.399 95.3594 211.161 94.8053C212.263 94.0254 213.068 92.8968 213.448 91.602C213.663 90.8269 213.769 89.9332 214.457 89.4335C214.852 89.1887 215.306 89.0558 215.771 89.0491C215.486 89.0491 215.201 89.0331 214.919 89.0331C214.249 89.0331 213.532 89.0683 212.997 89.4335C212.289 89.9332 212.199 90.8269 211.988 91.602C211.605 92.8965 210.799 94.0247 209.698 94.8053C208.938 95.3594 208.045 95.7662 207.318 96.3492C206.59 96.9322 206.036 97.7971 206.219 98.6523C206.401 99.5076 207.35 100.129 208.307 100.414C209.265 100.699 210.29 100.734 211.257 100.997C214.329 101.795 216.415 104.841 215.793 107.612C215.473 108.992 214.598 110.302 214.733 111.702C214.89 113.381 216.437 114.668 217.164 116.222C217.827 117.638 217.786 119.226 217.731 120.761C217.665 122.632 217.6 124.503 217.536 126.376C217.484 127.856 217.613 129.637 219.073 130.361C219.855 130.745 220.829 130.704 221.636 131.043C223.218 131.703 223.635 133.5 223.763 135.044C223.946 137.232 223.954 139.431 223.788 141.62C223.715 142.581 223.663 143.654 224.429 144.327C224.808 144.621 225.244 144.833 225.71 144.948C227.312 145.448 228.973 145.733 230.65 145.794C231.995 145.845 233.417 145.768 234.599 146.338C235.519 146.784 236.159 147.565 236.877 148.241C238.923 150.116 241.533 151.259 244.298 151.492C244.656 151.535 245.018 151.521 245.372 151.451C242.749 151.148 240.29 150.025 238.344 148.241Z" fill="#2F2E41"/>
</g>
<path opacity="0.1" d="M188.646 138.58C188.646 138.58 186.084 140.931 186.459 141.892C186.833 142.853 188.646 138.58 188.646 138.58Z" fill="#191C1F"/>
<path d="M191.023 168.802C189.175 168.351 184.079 167.934 181.654 176.067C181.089 177.956 180.37 179.796 179.504 181.567C177.179 186.343 174.174 196.164 187.387 198.326L219.099 205.534C219.099 205.534 236.076 207.616 237.197 206.815C238.318 206.014 238.158 204.252 238.158 204.252C238.158 204.252 219.419 204.252 215.736 198.486C212.052 192.721 211.892 184.873 211.892 184.873C211.892 184.873 212.353 172.755 192.993 169.235C192.352 169.113 191.68 168.963 191.023 168.802Z" fill="#191C1F"/>
<path opacity="0.1" d="M191.023 168.857C189.175 168.405 184.079 167.989 181.654 176.125C181.089 178.014 180.37 179.853 179.504 181.625C177.179 186.398 174.174 196.219 187.387 198.381L219.099 205.588C219.099 205.588 236.076 207.67 237.197 206.869C238.318 206.068 238.158 204.307 238.158 204.307C238.158 204.307 219.419 204.307 215.736 198.541C212.052 192.775 211.892 184.927 211.892 184.927C211.892 184.927 212.353 172.81 192.993 169.289C192.352 169.168 191.68 169.011 191.023 168.857Z" fill="#191C1F"/>
<path d="M257.499 160.516C257.316 159.343 256.713 158.278 255.802 157.517C254.892 156.755 253.737 156.351 252.55 156.377C247.989 156.461 233.949 157.069 227.428 161.329C227.428 161.329 222.463 164.533 221.021 164.533C219.58 164.533 200.04 181.189 229.029 196.084C229.029 196.084 244.565 200.505 250.651 190.126C250.651 190.126 254.975 178.979 254.655 175.119C254.334 171.259 257.538 160.849 257.538 160.849C257.538 160.849 257.531 160.724 257.499 160.516Z" fill="#191C1F"/>
<path opacity="0.1" d="M257.499 163.322C257.134 161.079 255.001 159.459 252.55 159.5C247.989 159.577 233.949 160.141 227.428 164.071C227.428 164.071 222.463 167.028 221.021 167.028C219.58 167.028 200.04 182.403 229.029 196.155C229.029 196.155 244.565 200.235 250.651 190.655C250.651 190.655 254.975 180.363 254.655 176.801C254.334 173.239 257.538 163.629 257.538 163.629C257.538 163.629 257.531 163.514 257.499 163.322Z" fill="#191C1F"/>
<path d="M242.002 196.081H236.877V206.994H242.002V196.081Z" fill="#F0F7FF"/>
<path opacity="0.1" d="M54.5312 151.704C62.4992 151.704 68.9585 151.289 68.9585 150.778C68.9585 150.267 62.4992 149.852 54.5312 149.852C46.5633 149.852 40.104 150.267 40.104 150.778C40.104 151.289 46.5633 151.704 54.5312 151.704Z" fill="#191C1F"/>
<path d="M66.6395 115.075C66.3322 115.496 66.0863 115.959 65.9091 116.449C65.8643 116.571 65.8194 116.706 65.7746 116.837C65.6938 116.799 65.6089 116.77 65.5215 116.75C65.148 116.657 64.762 116.623 64.378 116.651C64.378 116.504 64.3972 116.331 64.4004 116.183C64.4485 114.495 64.2499 112.141 62.6387 113.137C61.0947 114.098 62.1966 115.7 63.1928 116.728L63.4491 116.978C62.5394 117.618 62.3664 119.134 62.2158 120.706C62.0653 122.279 60.7296 124.002 59.8423 124.979C59.7526 125.079 59.6725 125.168 59.5924 125.252C59.2342 124.965 58.819 124.757 58.3744 124.643C57.9299 124.529 57.4661 124.51 57.0138 124.589C56.9786 124.451 56.937 124.307 56.8953 124.153C56.1778 121.565 54.6883 117.077 52.7888 116.094L53.0387 115.773C53.8459 114.716 54.7556 113.15 53.4134 112.746C52.0713 112.343 51.9496 114.108 52.0232 115.427C52.0232 115.594 52.0489 115.748 52.0617 115.895C51.7935 115.908 51.5308 115.976 51.2896 116.093C51.0484 116.211 50.8337 116.377 50.6587 116.581L50.4505 116.337C49.3614 115.056 47.3658 113.015 46.7604 114.556C46.1966 115.991 47.9552 117.852 49.1916 118.932L49.2685 118.999C48.4389 122.372 52.0521 125.127 54.0124 126.318L54.2655 126.472C51.5748 129.643 49.9123 135.585 49.9123 135.585L57.4463 136.931C57.4463 136.931 62.4433 132.622 61.8026 128.573H61.8539C66.8477 127.574 67.9816 122.25 67.2032 119.089L67.2929 119.053C68.2021 118.68 68.9989 118.078 69.6056 117.305C71.0022 115.36 68.0681 113.169 66.6395 115.075Z" fill="#35A7FF"/>
<path opacity="0.1" d="M66.6395 115.075C66.3322 115.496 66.0863 115.959 65.9091 116.449C65.8643 116.571 65.8194 116.706 65.7746 116.837C65.6938 116.799 65.6089 116.77 65.5215 116.75C65.148 116.657 64.762 116.623 64.378 116.651C64.378 116.504 64.3972 116.331 64.4004 116.183C64.4485 114.495 64.2499 112.141 62.6387 113.137C61.0947 114.098 62.1966 115.7 63.1928 116.728L63.4491 116.978C62.5394 117.618 62.3664 119.134 62.2158 120.706C62.0653 122.279 60.7296 124.002 59.8423 124.979C59.7526 125.079 59.6725 125.168 59.5924 125.252C59.2342 124.965 58.819 124.757 58.3744 124.643C57.9299 124.529 57.4661 124.51 57.0138 124.589C56.9786 124.451 56.937 124.307 56.8953 124.153C56.1778 121.565 54.6883 117.077 52.7888 116.094L53.0387 115.773C53.8459 114.716 54.7556 113.15 53.4134 112.746C52.0713 112.343 51.9496 114.108 52.0232 115.427C52.0232 115.594 52.0489 115.748 52.0617 115.895C51.7935 115.908 51.5308 115.976 51.2896 116.093C51.0484 116.211 50.8337 116.377 50.6587 116.581L50.4505 116.337C49.3614 115.056 47.3658 113.015 46.7604 114.556C46.1966 115.991 47.9552 117.852 49.1916 118.932L49.2685 118.999C48.4389 122.372 52.0521 125.127 54.0124 126.318L54.2655 126.472C51.5748 129.643 49.9123 135.585 49.9123 135.585L57.4463 136.931C57.4463 136.931 62.4433 132.622 61.8026 128.573H61.8539C66.8477 127.574 67.9816 122.25 67.2032 119.089L67.2929 119.053C68.2021 118.68 68.9989 118.078 69.6056 117.305C71.0022 115.36 68.0681 113.169 66.6395 115.075Z" fill="#191C1F"/>
<path d="M51.6418 117.247L50.7705 119.826C50.7705 119.826 50.2804 119.48 49.6622 118.935C48.4258 117.856 46.6672 115.994 47.231 114.559C47.8364 113.019 49.832 115.053 50.9211 116.34C51.3503 116.85 51.6418 117.247 51.6418 117.247Z" fill="#35A7FF"/>
<path d="M53.5 115.777C53.232 116.128 52.9454 116.465 52.6416 116.786C52.5665 116.337 52.5141 115.885 52.4846 115.431C52.4109 114.111 52.5519 112.359 53.8748 112.75C55.1977 113.14 54.2944 114.72 53.5 115.777Z" fill="#35A7FF"/>
<path d="M64.865 116.183C64.8393 117.032 64.756 117.708 64.756 117.708C64.3681 117.407 64.0011 117.079 63.6574 116.728C62.6612 115.693 61.5593 114.098 63.1032 113.137C64.7112 112.141 64.9098 114.495 64.865 116.183Z" fill="#35A7FF"/>
<path d="M70.0671 117.295C69.4582 118.068 68.6591 118.669 67.7479 119.041C67.4957 119.15 67.2368 119.243 66.9728 119.319L65.9349 117.862C66.0448 117.38 66.1882 116.907 66.3642 116.446C66.5413 115.956 66.7872 115.493 67.0945 115.072C68.5359 113.169 71.4637 115.36 70.0671 117.295Z" fill="#35A7FF"/>
<path opacity="0.1" d="M50.9116 116.34C51.3504 116.85 51.6419 117.247 51.6419 117.247L50.7707 119.826C50.7707 119.826 50.2806 119.48 49.6624 118.935C49.8004 118.109 50.1416 117.331 50.6554 116.67C50.7322 116.552 50.8251 116.44 50.9116 116.34Z" fill="#191C1F"/>
<path opacity="0.1" d="M53.4998 115.777C53.2317 116.128 52.9452 116.465 52.6413 116.786C52.5663 116.337 52.5139 115.885 52.4844 115.431C52.8507 115.437 53.2059 115.558 53.4998 115.777Z" fill="#191C1F"/>
<path d="M57.8179 126.014L55.6269 126.975C55.6269 126.975 55.1496 126.744 54.4609 126.315C52.1578 124.896 47.5292 121.331 50.6331 117.128C53.737 112.926 56.3252 120.466 57.3438 124.15C57.6674 125.255 57.8179 126.014 57.8179 126.014Z" fill="#35A7FF"/>
<path opacity="0.1" d="M63.6538 116.728C63.9715 116.398 64.4039 116.203 64.8614 116.183C64.8358 117.032 64.7525 117.708 64.7525 117.708C64.3646 117.407 63.9975 117.079 63.6538 116.728Z" fill="#191C1F"/>
<path opacity="0.1" d="M67.7479 119.041C67.4957 119.15 67.2368 119.243 66.9728 119.319L65.9349 117.862C66.0448 117.38 66.1882 116.907 66.3642 116.446C67.04 116.843 67.5333 117.814 67.7479 119.041Z" fill="#191C1F"/>
<path d="M62.3022 128.564L61.9338 128.628C54.5889 129.746 59.5122 125.783 59.5122 125.783C59.5122 125.783 59.8325 125.479 60.2906 124.979C61.1779 124.002 62.5104 122.289 62.6642 120.706C62.8948 118.326 63.1607 116.094 65.9699 116.75C68.7406 117.394 69.2692 127.17 62.3022 128.564Z" fill="#35A7FF"/>
<path d="M62.1775 146.848H48.1443V150.538H62.1775V146.848Z" fill="#191C1F"/>
<path d="M64.25 134.855H45.9149V147.732H64.25V134.855Z" fill="#191C1F"/>
<path opacity="0.1" d="M62.0429 146.848H48.0096V150.538H62.0429V146.848Z" fill="#191C1F"/>
<path opacity="0.1" d="M64.1921 134.858H45.8569V147.735H64.1921V134.858Z" fill="#191C1F"/>
<path d="M63.0996 146.848H49.0664V150.538H63.0996V146.848Z" fill="#191C1F"/>
<path opacity="0.1" d="M57.3565 124.166C57.6768 125.268 57.8306 126.027 57.8306 126.027L55.6396 126.988C55.6396 126.988 55.1623 126.757 54.4736 126.328C55.3321 125.229 56.2995 124.406 57.3565 124.166Z" fill="#191C1F"/>
<path opacity="0.1" d="M62.3022 128.564L61.9338 128.628C54.5889 129.746 59.5122 125.783 59.5122 125.783C59.5122 125.783 59.8325 125.479 60.2906 124.979C61.6615 126.088 62.2413 127.315 62.3022 128.564Z" fill="#191C1F"/>
<path d="M50.3738 135.585C50.3738 135.585 54.4867 120.85 60.2557 125.399C66.0246 129.948 57.9077 136.93 57.9077 136.93L50.3738 135.585Z" fill="#35A7FF"/>
<path opacity="0.1" d="M52.4494 119.899C52.7042 119.899 52.9107 119.693 52.9107 119.438C52.9107 119.183 52.7042 118.977 52.4494 118.977C52.1947 118.977 51.9882 119.183 51.9882 119.438C51.9882 119.693 52.1947 119.899 52.4494 119.899Z" fill="#191C1F"/>
<path opacity="0.1" d="M52.4106 122.055C52.6654 122.055 52.8719 121.848 52.8719 121.594C52.8719 121.339 52.6654 121.132 52.4106 121.132C52.1559 121.132 51.9493 121.339 51.9493 121.594C51.9493 121.848 52.1559 122.055 52.4106 122.055Z" fill="#191C1F"/>
<path opacity="0.1" d="M65.7905 120.322C66.0452 120.322 66.2518 120.115 66.2518 119.861C66.2518 119.606 66.0452 119.399 65.7905 119.399C65.5357 119.399 65.3292 119.606 65.3292 119.861C65.3292 120.115 65.5357 120.322 65.7905 120.322Z" fill="#191C1F"/>
<path opacity="0.1" d="M55.0247 131.357C55.2795 131.357 55.486 131.15 55.486 130.896C55.486 130.641 55.2795 130.434 55.0247 130.434C54.77 130.434 54.5635 130.641 54.5635 130.896C54.5635 131.15 54.77 131.357 55.0247 131.357Z" fill="#191C1F"/>
<path opacity="0.1" d="M64.8294 123.9C65.0842 123.9 65.2907 123.693 65.2907 123.439C65.2907 123.184 65.0842 122.977 64.8294 122.977C64.5747 122.977 64.3682 123.184 64.3682 123.439C64.3682 123.693 64.5747 123.9 64.8294 123.9Z" fill="#191C1F"/>
<path opacity="0.1" d="M60.0634 128.666C60.3182 128.666 60.5247 128.46 60.5247 128.205C60.5247 127.95 60.3182 127.744 60.0634 127.744C59.8087 127.744 59.6022 127.95 59.6022 128.205C59.6022 128.46 59.8087 128.666 60.0634 128.666Z" fill="#191C1F"/>
<path opacity="0.1" d="M54.025 120.822C54.2797 120.822 54.4862 120.615 54.4862 120.36C54.4862 120.106 54.2797 119.899 54.025 119.899C53.7702 119.899 53.5637 120.106 53.5637 120.36C53.5637 120.615 53.7702 120.822 54.025 120.822Z" fill="#191C1F"/>
<path opacity="0.1" d="M64.5219 121.709C64.7767 121.709 64.9832 121.502 64.9832 121.248C64.9832 120.993 64.7767 120.786 64.5219 120.786C64.2672 120.786 64.0607 120.993 64.0607 121.248C64.0607 121.502 64.2672 121.709 64.5219 121.709Z" fill="#191C1F"/>
<path opacity="0.1" d="M62.9462 125.284C63.201 125.284 63.4075 125.077 63.4075 124.822C63.4075 124.568 63.201 124.361 62.9462 124.361C62.6915 124.361 62.485 124.568 62.485 124.822C62.485 125.077 62.6915 125.284 62.9462 125.284Z" fill="#191C1F"/>
<path opacity="0.1" d="M58.0997 131.011C58.3544 131.011 58.561 130.804 58.561 130.55C58.561 130.295 58.3544 130.088 58.0997 130.088C57.8449 130.088 57.6384 130.295 57.6384 130.55C57.6384 130.804 57.8449 131.011 58.0997 131.011Z" fill="#191C1F"/>
<path opacity="0.1" d="M57.1005 128.743C57.3553 128.743 57.5618 128.537 57.5618 128.282C57.5618 128.027 57.3553 127.821 57.1005 127.821C56.8458 127.821 56.6393 128.027 56.6393 128.282C56.6393 128.537 56.8458 128.743 57.1005 128.743Z" fill="#191C1F"/>
<path opacity="0.1" d="M54.7171 123.631C54.9719 123.631 55.1784 123.424 55.1784 123.17C55.1784 122.915 54.9719 122.708 54.7171 122.708C54.4624 122.708 54.2559 122.915 54.2559 123.17C54.2559 123.424 54.4624 123.631 54.7171 123.631Z" fill="#191C1F"/>
<path opacity="0.1" d="M63.0996 146.848H49.0664V148.196H63.0996V146.848Z" fill="#191C1F"/>
<path d="M65.1722 134.855H46.837V147.732H65.1722V134.855Z" fill="#191C1F"/>
<path opacity="0.1" d="M58.7148 133.087C58.9696 133.087 59.1761 132.88 59.1761 132.626C59.1761 132.371 58.9696 132.164 58.7148 132.164C58.4601 132.164 58.2535 132.371 58.2535 132.626C58.2535 132.88 58.4601 133.087 58.7148 133.087Z" fill="#191C1F"/>
<path opacity="0.1" d="M55.9469 133.663C56.2016 133.663 56.4081 133.457 56.4081 133.202C56.4081 132.947 56.2016 132.741 55.9469 132.741C55.6921 132.741 55.4856 132.947 55.4856 133.202C55.4856 133.457 55.6921 133.663 55.9469 133.663Z" fill="#191C1F"/>
<path d="M99.9049 184.066C99.9049 184.066 102.189 187.054 98.851 191.564C95.5133 196.074 92.7649 199.893 93.8668 202.699C93.8668 202.699 98.9087 194.319 103.012 194.204C107.115 194.089 104.418 189.108 99.9049 184.066Z" fill="#35A7FF"/>
<path opacity="0.1" d="M99.9045 184.066C100.104 184.354 100.262 184.669 100.372 185.001C104.373 189.703 106.506 194.092 102.659 194.204C99.0749 194.316 94.7762 200.722 93.7448 202.324C93.78 202.449 93.8216 202.574 93.8665 202.692C93.8665 202.692 98.9083 194.313 103.012 194.197C107.115 194.082 104.418 189.108 99.9045 184.066Z" fill="#191C1F"/>
<path d="M104.152 187.877C104.152 188.928 104.034 189.78 103.89 189.78C103.746 189.78 103.627 188.928 103.627 187.877C103.627 186.827 103.774 187.32 103.919 187.32C104.063 187.32 104.152 186.824 104.152 187.877Z" fill="#FD3E60"/>
<path d="M105.609 189.133C104.687 189.636 103.883 189.94 103.812 189.812C103.742 189.684 104.434 189.172 105.36 188.669C106.285 188.166 105.917 188.531 106 188.669C106.083 188.806 106.535 188.63 105.609 189.133Z" fill="#FD3E60"/>
<path d="M87.8318 184.066C87.8318 184.066 85.5479 187.054 88.8856 191.564C92.2234 196.074 94.9717 199.893 93.8666 202.699C93.8666 202.699 88.8279 194.319 84.7246 194.204C80.6213 194.089 83.3184 189.108 87.8318 184.066Z" fill="#35A7FF"/>
<path opacity="0.1" d="M87.8317 184.066C87.6321 184.354 87.4746 184.669 87.3641 185.001C83.3633 189.703 81.2299 194.092 85.077 194.204C88.6614 194.316 92.9601 200.722 93.9915 202.324C93.9566 202.449 93.9149 202.572 93.8666 202.692C93.8666 202.692 88.8279 194.316 84.7246 194.207C80.6213 194.098 83.3184 189.108 87.8317 184.066Z" fill="#191C1F"/>
<path d="M83.5845 187.877C83.5845 188.928 83.703 189.78 83.8471 189.78C83.9913 189.78 84.1098 188.928 84.1098 187.877C84.1098 186.827 83.9625 187.32 83.8183 187.32C83.6742 187.32 83.5845 186.824 83.5845 187.877Z" fill="#FD3E60"/>
<path d="M82.1271 189.133C83.0496 189.636 83.8536 189.94 83.9241 189.812C83.9946 189.684 83.3027 189.172 82.3769 188.669C81.4512 188.166 81.8196 188.531 81.7363 188.669C81.653 188.806 81.2014 188.63 82.1271 189.133Z" fill="#FD3E60"/>
<path opacity="0.1" d="M93.8668 225.566C107.064 225.566 117.763 223.924 117.763 221.899C117.763 219.873 107.064 218.231 93.8668 218.231C80.6695 218.231 69.9709 219.873 69.9709 221.899C69.9709 223.924 80.6695 225.566 93.8668 225.566Z" fill="#35A7FF"/>
<path d="M106.167 198.676L106.052 199.608L105.892 200.927L105.828 201.475L105.664 202.795L105.597 203.346L105.437 204.662L103.624 219.653C103.46 220.992 101.273 222.033 98.6364 222.033H89.1164C86.477 222.033 84.3116 220.992 84.1323 219.653L82.3 204.662L82.1399 203.346L82.0726 202.795L81.9092 201.475L81.8452 200.927L81.685 199.608L81.5697 198.676C81.4768 197.92 82.6588 197.279 84.1547 197.279H103.585C105.075 197.279 106.26 197.92 106.167 198.676Z" fill="#65617D"/>
<path d="M106.052 199.608L105.892 200.924H81.8453L81.6852 199.608H106.052Z" fill="#9D9CB5"/>
<path d="M105.827 201.475L105.667 202.795H82.0725L81.9092 201.475H105.827Z" fill="#9D9CB5"/>
<path d="M105.597 203.343L105.436 204.662H82.2997L82.1395 203.343H105.597Z" fill="#9D9CB5"/>
</g>
<defs>
<linearGradient id="paint0_linear" x1="217.232" y1="254.328" x2="217.232" y2="89.0139" gradientUnits="userSpaceOnUse">
<stop stop-color="#808080" stop-opacity="0.25"/>
<stop offset="0.54" stop-color="#808080" stop-opacity="0.12"/>
<stop offset="1" stop-color="#808080" stop-opacity="0.1"/>
</linearGradient>
<clipPath id="clip0">
<rect width="320" height="255.375" fill="white"/>
</clipPath>
</defs>
</svg>
