<svg width="320" height="239" viewBox="0 0 320 239" fill="none" xmlns="http://www.w3.org/2000/svg">
<g clip-path="url(#clip0)">
<path d="M27.487 27.8404L27.4868 27.8409C26.4214 29.6458 26.5316 31.9224 26.7493 34.2142C27.0887 37.7711 27.531 41.3858 27.9761 45.0234C28.757 51.4063 29.5466 57.8597 29.8044 64.1951C30.2103 74.1683 29.3098 83.9638 24.9821 92.9935L24.982 92.9936C22.8823 97.3723 20.0815 101.306 17.129 105.114C16.1856 106.331 15.229 107.533 14.2743 108.732C12.2297 111.3 10.194 113.857 8.31662 116.53C2.81671 124.359 -1.24522 134.015 1.25825 143.045L0.776429 143.179L1.25828 143.045C2.78743 148.564 6.41181 152.88 10.6913 156.929C12.2721 158.425 13.9307 159.874 15.6011 161.333C16.1933 161.85 16.787 162.369 17.3793 162.892C19.6352 164.882 21.8608 166.92 23.8505 169.117C26.4556 171.99 28.6663 175.166 30.8173 178.354C31.0979 178.77 31.3774 179.186 31.6566 179.601C33.5236 182.38 35.3776 185.139 37.4564 187.724C42.2366 193.667 48.7115 198.803 56.1797 199.145L56.1799 199.145C61.5582 199.393 66.4619 197.196 71.4434 194.599C72.1617 194.224 72.882 193.841 73.6055 193.456C77.8611 191.192 82.2253 188.871 86.9304 187.911L87.0303 188.401L86.9305 187.911C98.2545 185.602 109.586 191.482 118.609 198.394C120.867 200.124 123.073 201.944 125.269 203.763L125.629 204.061C127.707 205.783 129.778 207.498 131.889 209.142C136.357 212.618 140.983 215.751 146.165 217.877L146.165 217.877C151.889 220.229 157.991 221.231 164.219 222C165.524 222.161 166.836 222.312 168.151 222.463C173.09 223.032 178.072 223.606 182.913 224.741L182.913 224.741C188.501 226.052 193.861 228.102 199.178 230.181C199.503 230.308 199.828 230.435 200.153 230.562C205.15 232.519 210.12 234.465 215.263 235.843C226.219 238.78 238.922 238.561 247.272 231.183L27.487 27.8404ZM27.487 27.8404C28.4902 26.1365 30.3898 25.1275 32.3779 24.3027C38.7198 21.6719 44.734 20.9304 50.7371 20.1902C51.4126 20.107 52.0879 20.0237 52.7635 19.9378C59.4321 19.0896 66.1034 17.9815 73.0465 13.9608C88.8139 4.83169 106.694 -2.50744 125.033 1.7355L27.487 27.8404Z" stroke="#35A7FF"/>
<path d="M60.0205 87.5056C60.0205 87.5056 49.4981 97.4361 38.205 97.732C33.4627 97.8264 28.879 99.4567 25.1422 102.378C23.3759 103.774 21.7412 105.33 20.2587 107.024" stroke="#535461" stroke-width="2" stroke-miterlimit="10"/>
<path d="M13.1368 107.268C14.6537 106.497 20.4436 107.009 20.4436 107.009C20.4436 107.009 17.4407 111.988 15.9239 112.759C15.5606 112.974 15.1569 113.113 14.738 113.165C14.319 113.218 13.8936 113.185 13.4882 113.066C13.0828 112.948 12.706 112.748 12.3812 112.478C12.0564 112.208 11.7905 111.874 11.6001 111.497C11.4096 111.12 11.2986 110.708 11.2739 110.287C11.2493 109.865 11.3115 109.443 11.4568 109.046C11.602 108.65 11.8272 108.287 12.1183 107.981C12.4094 107.676 12.7603 107.433 13.1491 107.268H13.1368Z" fill="#35A7FF"/>
<path d="M19.2319 98.4658C20.9245 98.6446 25.5059 102.221 25.5059 102.221C25.5059 102.221 20.2647 104.768 18.5875 104.592C17.8029 104.473 17.0941 104.057 16.6088 103.429C16.1235 102.801 15.899 102.01 15.982 101.221C16.065 100.432 16.4492 99.7048 17.0545 99.1917C17.6598 98.6785 18.4397 98.4185 19.2319 98.4658Z" fill="#35A7FF"/>
<path d="M33.6853 91.3717C35.0542 92.3799 37.2061 97.7814 37.2061 97.7814C37.2061 97.7814 31.4069 97.3405 30.0381 96.3354C29.4211 95.8369 29.02 95.1198 28.9181 94.3332C28.8163 93.5466 29.0215 92.7509 29.4912 92.1118C29.9608 91.4726 30.6588 91.039 31.4399 90.9012C32.221 90.7633 33.0252 90.9319 33.6853 91.3717Z" fill="#35A7FF"/>
<path d="M45.8291 88.4706C47.3491 89.2321 50.3828 94.1927 50.3828 94.1927C50.3828 94.1927 44.5928 94.7384 43.0729 93.9769C42.6894 93.8094 42.344 93.5657 42.0578 93.2604C41.7715 92.9552 41.5504 92.5949 41.4079 92.2014C41.2654 91.808 41.2045 91.3896 41.2289 90.9719C41.2533 90.5541 41.3624 90.1457 41.5497 89.7715C41.737 89.3973 41.9986 89.0651 42.3184 88.7953C42.6382 88.5254 43.0096 88.3235 43.41 88.2018C43.8104 88.0801 44.2313 88.0411 44.6472 88.0873C45.0631 88.1336 45.4653 88.264 45.8291 88.4706Z" fill="#35A7FF"/>
<path d="M28.7275 107.835C29.2331 106.21 27.7533 100.587 27.7533 100.587C27.7533 100.587 23.3507 104.385 22.8451 106.01C22.7026 106.402 22.6412 106.819 22.6646 107.236C22.688 107.652 22.7958 108.06 22.9813 108.433C23.1668 108.807 23.4262 109.139 23.7438 109.41C24.0615 109.68 24.4307 109.884 24.8292 110.007C25.2277 110.131 25.6471 110.172 26.0621 110.129C26.4771 110.086 26.879 109.959 27.2435 109.756C27.6079 109.553 27.9274 109.278 28.1825 108.948C28.4376 108.618 28.623 108.239 28.7275 107.835Z" fill="#35A7FF"/>
<path d="M42.8882 104.25C42.8882 102.548 39.7897 97.6272 39.7897 97.6272C39.7897 97.6272 36.7252 102.56 36.7283 104.268C36.7307 105.086 37.0579 105.869 37.6378 106.445C38.2177 107.022 39.0029 107.344 39.8205 107.342C40.6382 107.339 41.4214 107.012 41.9979 106.432C42.5743 105.852 42.8968 105.067 42.8943 104.25H42.8882Z" fill="#35A7FF"/>
<path d="M56.1728 98.8975C56.4565 97.2203 54.2367 91.8466 54.2367 91.8466C54.2367 91.8466 50.3798 96.1998 50.0993 97.877C50.0045 98.6638 50.2164 99.4569 50.691 100.092C51.1656 100.726 51.8663 101.154 52.6478 101.286C53.4293 101.417 54.2316 101.243 54.8879 100.799C55.5443 100.355 56.0045 99.675 56.1728 98.9005V98.8975Z" fill="#35A7FF"/>
<path d="M73.6936 61.2074C73.6936 61.2074 61.0193 54.2459 57.2518 43.5817C55.704 39.0974 52.743 35.2363 48.8136 32.5784C46.9384 31.3306 44.9529 30.2573 42.8818 29.372" stroke="#535461" stroke-width="2" stroke-miterlimit="10"/>
<path d="M40.4772 22.6664C41.6765 23.8719 42.9683 29.5416 42.9683 29.5416C42.9683 29.5416 37.3078 28.2159 36.1085 27.0074C35.5789 26.4192 35.2958 25.6499 35.3177 24.8588C35.3397 24.0676 35.6651 23.3152 36.2265 22.7573C36.7879 22.1995 37.5424 21.8789 38.3337 21.862C39.1249 21.8451 39.8924 22.1331 40.4772 22.6664Z" fill="#35A7FF"/>
<path d="M50.728 25.7587C51.0795 27.4235 49.0848 32.8836 49.0848 32.8836C49.0848 32.8836 45.0553 28.6937 44.7038 27.0258C44.5995 26.6225 44.578 26.2021 44.6407 25.7902C44.7033 25.3783 44.8488 24.9834 45.0684 24.6293C45.2879 24.2752 45.577 23.9692 45.918 23.73C46.2591 23.4907 46.6452 23.323 47.0529 23.2371C47.4605 23.1512 47.8814 23.1488 48.2901 23.2301C48.6987 23.3114 49.0866 23.4746 49.4304 23.71C49.7742 23.9454 50.0667 24.248 50.2902 24.5996C50.5138 24.9512 50.6638 25.3444 50.7311 25.7556L50.728 25.7587Z" fill="#35A7FF"/>
<path d="M61.9196 37.3478C61.3831 38.9602 56.9035 42.6691 56.9035 42.6691C56.9035 42.6691 55.5408 37.0179 56.0772 35.4024C56.3352 34.6256 56.8912 33.9831 57.6229 33.6163C58.3546 33.2494 59.202 33.1883 59.9788 33.4462C60.7556 33.7042 61.3981 34.2602 61.7649 34.9919C62.1318 35.7236 62.193 36.571 61.935 37.3478H61.9196Z" fill="#35A7FF"/>
<path d="M68.4186 47.9997C68.1627 49.68 64.3736 54.0918 64.3736 54.0918C64.3736 54.0918 62.0737 48.752 62.3296 47.0717C62.3722 46.6565 62.4987 46.2542 62.7015 45.8893C62.9042 45.5244 63.1789 45.2045 63.509 44.9489C63.839 44.6933 64.2176 44.5075 64.6216 44.4026C65.0256 44.2976 65.4468 44.2759 65.8595 44.3386C66.2722 44.4012 66.6678 44.5471 67.0225 44.7672C67.3772 44.9874 67.6834 45.2773 67.9227 45.6193C68.162 45.9614 68.3293 46.3485 68.4146 46.7571C68.4998 47.1658 68.5011 47.5874 68.4186 47.9966V47.9997Z" fill="#35A7FF"/>
<path d="M44.7287 37.6777C46.4305 37.6592 51.3264 34.5207 51.3264 34.5207C51.3264 34.5207 46.3596 31.4993 44.6578 31.5178C43.8401 31.5272 43.0596 31.861 42.4881 32.4459C41.9166 33.0307 41.6008 33.8186 41.6102 34.6363C41.6196 35.4539 41.9534 36.2344 42.5383 36.8059C43.1231 37.3775 43.911 37.6933 44.7287 37.6839V37.6777Z" fill="#35A7FF"/>
<path d="M52.4856 50.053C54.1011 49.5258 57.8347 45.0677 57.8347 45.0677C57.8347 45.0677 52.1896 43.6711 50.5741 44.1983C50.1755 44.3121 49.8038 44.5051 49.4815 44.7658C49.1591 45.0265 48.8927 45.3495 48.698 45.7156C48.5034 46.0816 48.3846 46.4832 48.3487 46.8962C48.3128 47.3092 48.3606 47.7253 48.4893 48.1194C48.6179 48.5135 48.8246 48.8777 49.0972 49.19C49.3698 49.5024 49.7026 49.7566 50.0757 49.9374C50.4488 50.1182 50.8545 50.2219 51.2685 50.2423C51.6826 50.2627 52.0966 50.1993 52.4856 50.0561V50.053Z" fill="#35A7FF"/>
<path d="M61.6729 61.047C63.3563 60.8004 67.7897 57.0391 67.7897 57.0391C67.7897 57.0391 62.4622 54.7083 60.782 54.955C60.3681 54.9976 59.9672 55.1236 59.6034 55.3253C59.2395 55.527 58.9202 55.8002 58.6648 56.1285C58.4093 56.4569 58.2229 56.8335 58.1169 57.2358C58.0108 57.638 57.9873 58.0576 58.0477 58.4692C58.108 58.8808 58.2511 59.276 58.4682 59.6308C58.6853 59.9857 58.972 60.2929 59.311 60.5341C59.65 60.7752 60.0343 60.9452 60.4408 61.0339C60.8472 61.1226 61.2674 61.1281 61.676 61.0501L61.6729 61.047Z" fill="#35A7FF"/>
<path d="M160.916 230.12C222.554 230.12 272.521 180.153 272.521 118.515C272.521 56.8766 222.554 6.90906 160.916 6.90906C99.2776 6.90906 49.3101 56.8766 49.3101 118.515C49.3101 180.153 99.2776 230.12 160.916 230.12Z" fill="url(#paint0_linear)"/>
<path d="M160.916 228.271C221.532 228.271 270.671 179.131 270.671 118.515C270.671 57.8983 221.532 8.75891 160.916 8.75891C100.299 8.75891 51.1597 57.8983 51.1597 118.515C51.1597 179.131 100.299 228.271 160.916 228.271Z" fill="#35A7FF"/>
<path d="M160.916 205.764C209.102 205.764 248.165 166.701 248.165 118.515C248.165 70.3281 209.102 31.265 160.916 31.265C112.729 31.265 73.6659 70.3281 73.6659 118.515C73.6659 166.701 112.729 205.764 160.916 205.764Z" fill="#F0F7FF"/>
<path opacity="0.3" d="M163.382 46.6802H158.449V123.756H163.382V46.6802Z" fill="#535461"/>
<g opacity="0.1">
<path opacity="0.1" d="M235.833 116.665H166.157V122.831H235.833V116.665Z" fill="#191C1F"/>
<path opacity="0.1" d="M116.964 93.5959L114.104 99.0583L157.945 122.017L160.806 116.554L116.964 93.5959Z" fill="#191C1F"/>
<path opacity="0.1" d="M160.915 128.997C166.024 128.997 170.165 124.856 170.165 119.748C170.165 114.64 166.024 110.499 160.915 110.499C155.807 110.499 151.666 114.64 151.666 119.748C151.666 124.856 155.807 128.997 160.915 128.997Z" fill="#191C1F"/>
</g>
<path d="M235.833 115.432H166.157V121.598H235.833V115.432Z" fill="#535461"/>
<path d="M160.826 115.328L116.985 92.3698L114.124 97.8321L157.966 120.791L160.826 115.328Z" fill="#535461"/>
<path d="M160.916 127.764C166.024 127.764 170.165 123.623 170.165 118.515C170.165 113.407 166.024 109.266 160.916 109.266C155.807 109.266 151.667 113.407 151.667 118.515C151.667 123.623 155.807 127.764 160.916 127.764Z" fill="#535461"/>
<g opacity="0.1">
<path opacity="0.1" d="M80.4422 128.997C80.4422 80.8093 119.504 41.7473 167.692 41.7473C181.217 41.7353 194.559 44.8728 206.661 50.9111C218.764 56.9494 229.294 65.7228 237.418 76.5362C222.57 49.5535 193.898 31.265 160.909 31.265C112.722 31.265 73.6595 70.327 73.6595 118.515C73.6312 137.445 79.7879 155.866 91.1927 170.976C84.12 158.116 80.4213 143.673 80.4422 128.997Z" fill="#191C1F"/>
</g>
<path d="M241.531 54.3322C240.495 53.3364 231.776 59.8817 231.776 59.8817C231.776 59.8817 228.671 60.449 229.411 62.5793C230.151 64.7097 226.159 76.641 226.159 76.641L224.534 74.3688C224.691 71.702 223.957 69.8121 223.242 68.6344C223.184 68.5388 223.125 68.4463 223.066 68.36L223.35 68.2613C223.242 66.8062 220.915 64.5895 219.678 63.5042C219.678 63.347 219.678 63.1959 219.678 63.0356C219.755 61.2968 220.452 59.4624 219.678 57.887C218.803 56.0895 216.241 55.1862 216.025 53.2131C215.895 52.0354 216.691 50.9717 217.042 49.8372C217.881 47.1241 216.139 44.3555 214.474 42.0186C213.91 41.1424 213.224 40.3513 212.436 39.6693C211.686 39.1207 210.862 38.6806 209.988 38.3621C207.55 37.3756 205.055 36.8792 202.54 36.204C200.126 35.5627 197.9 35.2575 195.449 36.0622C194.867 36.219 194.336 36.5239 193.907 36.947C193.324 37.6006 193.247 38.5317 192.865 39.3117C192.248 40.5665 190.92 41.3157 189.745 42.1203C188.57 42.925 187.393 44.0287 187.387 45.4161C187.387 47.3862 189.637 48.6255 190.389 50.4599C191.092 52.1679 190.389 54.0702 189.998 55.8707C189.834 56.4526 189.818 57.0661 189.952 57.6557C190.107 58.0951 190.341 58.5026 190.642 58.8581C191.108 59.4747 191.607 60.0482 192.104 60.6339L191.875 60.7233C187.738 60.2979 185.077 65.5514 185.077 65.5514C185.269 65.5914 185.45 65.6377 185.629 65.6901L185.453 65.9183C184.203 67.5419 183.182 69.3292 182.417 71.2303L179.025 75.7747C179.025 75.7747 178.285 64.4106 180.061 61.8548C181.837 59.299 178.436 57.7359 178.436 57.7359C178.436 57.7359 171.037 49.498 170.011 50.2071C168.984 50.9162 172.523 59.8663 175.628 61.2875C175.628 61.2875 175.936 64.127 175.32 65.9737C174.947 67.1422 172.955 79.4682 172.955 79.4682C172.955 79.4682 171.182 89.8364 179.312 84.7093C184.593 81.3858 188.006 75.6637 189.745 72.0689C189.866 71.8161 189.98 71.5746 190.087 71.3444C190.168 71.7257 190.222 72.1119 190.251 72.5005L190.559 84.3794C190.637 87.3176 189.996 90.2303 188.691 92.8639L185.068 100.211L185.472 100.334L185.228 100.686C182.842 104.197 178.785 112.093 187.137 116.116L198.236 117.537L197.644 120.377C197.644 120.377 193.062 129.04 191.731 135.006C190.903 138.659 189.611 142.191 187.886 145.516L188.228 145.698C188.157 145.778 188.083 145.861 188.012 145.948C187.339 146.704 186.895 147.637 186.73 148.636L185.225 150.769C185.225 150.769 184.633 159.575 185.817 161.708C186.465 162.873 188.614 163.613 190.442 164.045C193.155 164.689 195.344 161.887 193.904 159.578L193.886 159.547H193.858C193.55 158.113 192.606 153.664 192.914 151.975C193.001 151.494 193.081 151.016 193.121 150.529C193.195 149.889 193.39 149.269 193.694 148.701C193.744 148.605 193.796 148.513 193.849 148.42L194.009 148.488C194.505 148.701 194.995 148.901 195.461 149.077C194.74 149.734 194.228 151.093 194.844 153.889C194.844 153.889 194.903 160.885 195.436 161.985C195.97 163.086 201.938 164.541 202.974 163.407C204.01 162.272 202.308 158.363 202.308 158.363L202.256 158.4C201.914 156.134 201.491 152.077 202.53 150.48C202.95 149.835 203.357 149.169 203.72 148.547L203.946 148.161C205.875 149.123 207.916 149.848 209.033 149.345C209.033 149.345 213.91 137.981 213.614 136.563C213.318 135.145 221.152 119.091 221.152 119.091C221.152 119.091 227.802 111.692 219.675 106.593C217.095 104.968 215.214 103.877 213.848 103.14L212.704 97.1586C212.116 94.023 212.222 90.7966 213.013 87.706L214.246 83.0013L214.348 82.6005C214.348 82.6005 217.452 76.2094 217.304 73.225C217.293 72.9932 217.319 72.7611 217.381 72.5375C217.415 72.6793 217.452 72.8273 217.492 72.9815C218.308 76.0833 219.383 79.1112 220.705 82.0332C223.063 87.3546 226.563 86.9322 228.48 86.1768C228.891 86.018 229.255 85.7595 229.541 85.4248C229.827 85.09 230.025 84.6895 230.117 84.2592C230.808 80.948 232.704 71.6712 232.824 69.1092C232.932 67.1058 233.179 65.1124 233.564 63.1435C238.429 60.2979 242.567 55.328 241.531 54.3322Z" fill="url(#paint1_linear)"/>
<path d="M205.339 145.349C205.339 145.349 204.689 146.654 203.798 148.22C203.449 148.836 203.061 149.499 202.663 150.137C201.254 152.391 202.663 159.571 202.663 159.571L199.58 159.994L196.497 158.452L195.933 153.242V149.431L199.447 145.501L200.989 143.799L205.339 145.349Z" fill="#F8BDC5"/>
<g opacity="0.1">
<path opacity="0.1" d="M205.339 145.349C205.339 145.349 204.689 146.654 203.798 148.22C202.436 147.492 201.121 146.683 199.858 145.797L199.586 145.605L199.441 145.501L200.983 143.799L205.339 145.349Z" fill="#191C1F"/>
</g>
<path d="M220.412 119.014C220.412 119.014 212.948 134.926 213.232 136.335C213.515 137.744 208.866 149.009 208.866 149.009C207.805 149.508 205.857 148.79 204.019 147.837C202.634 147.099 201.295 146.275 200.012 145.371L199.74 145.18L199.577 145.063L211.829 111.125L200.989 103.174L200.187 102.585L195.341 99.0084L210.139 101.684C210.139 101.684 210.654 101.62 213.376 103.143C214.684 103.873 216.5 104.968 219.009 106.614C226.744 111.692 220.412 119.014 220.412 119.014Z" fill="#191C1F"/>
<g opacity="0.03">
<path opacity="0.03" d="M220.412 119.014C220.412 119.014 212.948 134.926 213.232 136.335C213.515 137.744 208.866 149.009 208.866 149.009C207.805 149.508 205.857 148.79 204.019 147.837C202.634 147.099 201.295 146.275 200.012 145.371L199.74 145.18L199.577 145.063L211.829 111.125L200.989 103.174L200.187 102.585L195.341 99.0084L210.139 101.684C210.139 101.684 210.654 101.62 213.376 103.143C214.684 103.873 216.5 104.968 219.009 106.614C226.744 111.692 220.412 119.014 220.412 119.014Z" fill="#191C1F"/>
</g>
<path d="M197.736 148.164C197.736 148.164 194.074 147.6 195.344 153.516C195.344 153.516 195.399 160.453 195.908 161.532C196.417 162.611 202.105 164.066 203.088 162.941C204.072 161.816 202.453 157.944 202.453 157.944C202.453 157.944 198.3 160.971 197.172 157.731C196.044 154.491 197.736 148.164 197.736 148.164Z" fill="#5D3E53"/>
<path d="M195.199 147.039C194.799 147.419 194.474 147.871 194.24 148.371C193.949 148.937 193.764 149.551 193.694 150.184C193.657 150.665 193.58 151.142 193.5 151.617C193.149 153.624 194.496 159.571 194.496 159.571L189.144 160.416L187.174 158.304L186.751 153.658C187.277 152.065 187.562 150.403 187.596 148.725C187.596 147.514 188.213 146.432 188.829 145.642C189.247 145.116 189.726 144.641 190.257 144.227C190.257 144.227 196.327 146.052 195.199 147.039Z" fill="#F8BDC5"/>
<g opacity="0.1">
<path opacity="0.1" d="M195.199 147.039C194.799 147.419 194.474 147.871 194.24 148.371C192.048 147.381 189.745 146.133 188.906 145.67L188.842 145.636C189.26 145.11 189.739 144.635 190.269 144.221C190.269 144.221 196.327 146.052 195.199 147.039Z" fill="#191C1F"/>
</g>
<path d="M212.522 114.79C212.522 114.79 209.005 121.41 206.748 126.901C205.268 130.508 202.21 139.097 200.274 144.566L199.99 145.374C199.139 147.794 198.572 149.431 198.572 149.431C198.197 149.434 197.823 149.379 197.465 149.268C197.132 149.179 196.759 149.058 196.361 148.91L195.914 148.741C195.47 148.568 194.989 148.368 194.53 148.158C192.292 147.159 189.905 145.858 189.039 145.383L188.712 145.201C190.365 141.891 191.598 138.387 192.384 134.772C193.651 128.858 198.017 120.281 198.017 120.281L198.581 117.463L188.018 116.055C180.061 112.077 183.927 104.237 186.2 100.757C186.587 100.152 187.006 99.5688 187.454 99.0084L195.905 100.858C195.905 100.858 197.237 101.284 200.196 102.594L201.556 103.211C203.215 103.972 205.256 104.953 207.722 106.21C216.04 110.416 212.522 114.79 212.522 114.79Z" fill="#191C1F"/>
<path d="M194.444 159.149C194.745 159.657 194.889 160.242 194.858 160.832C194.827 161.422 194.623 161.989 194.27 162.462C193.917 162.936 193.432 163.294 192.876 163.492C192.32 163.691 191.717 163.72 191.145 163.576C189.415 163.148 187.365 162.414 186.748 161.258C185.623 159.146 186.184 150.415 186.184 150.415L187.664 148.232C187.664 148.232 186.89 157.879 188.721 158.714C190.553 159.55 194.425 159.106 194.425 159.106L194.444 159.149Z" fill="#5D3E53"/>
<path d="M195.942 36.6881C195.379 36.8446 194.869 37.1478 194.462 37.5668C193.907 38.2142 193.845 39.1391 193.469 39.9129C192.884 41.1462 191.62 41.9015 190.497 42.6877C189.375 43.4738 188.256 44.5806 188.25 45.9557C188.25 47.9103 190.408 49.1374 191.111 50.9533C191.78 52.6489 191.111 54.5327 190.738 56.3177C190.582 56.8957 190.567 57.5025 190.695 58.0874C190.842 58.5212 191.065 58.9253 191.354 59.2805C192.714 61.1304 194.403 62.7705 195.313 64.8762C196.004 66.4763 196.195 68.2429 196.377 69.9787C196.639 72.4759 196.901 75.0194 196.426 77.4858C196.38 77.6334 196.38 77.7915 196.426 77.939C196.507 78.0805 196.634 78.1895 196.787 78.2473C197.684 78.6832 198.66 78.9332 199.656 78.9823C200.652 79.0314 201.648 78.8785 202.584 78.533C203.519 78.1874 204.376 77.6562 205.101 76.9713C205.826 76.2865 206.405 75.4621 206.803 74.5477C207.42 73.1511 207.657 71.4647 208.878 70.5583C209.021 70.4404 209.192 70.3627 209.375 70.3332C209.663 70.3411 209.942 70.4345 210.176 70.6014C211.761 71.4585 213.682 71.4832 215.448 71.1317C216.515 70.919 217.606 70.5398 218.312 69.7073C219.703 68.0548 218.929 65.5853 219.021 63.4303C219.095 61.7069 219.758 59.8879 219.021 58.3279C218.189 56.5459 215.744 55.6518 215.541 53.7033C215.417 52.538 216.176 51.4805 216.512 50.3582C217.31 47.6668 215.652 44.9229 214.067 42.6075C213.534 41.7438 212.881 40.9601 212.128 40.2798C211.417 39.7386 210.632 39.3025 209.797 38.9849C207.476 38.0076 205.108 37.5143 202.706 36.8484C200.406 36.1917 198.288 35.8865 195.942 36.6881Z" fill="#85555C"/>
<path d="M207.735 76.9093H199.565V63.6707C199.807 62.3993 199.95 61.1107 199.99 59.8169C199.99 59.3822 199.99 58.9383 199.99 58.4912C199.913 56.9127 199.586 55.3373 198.729 54.3754C196.475 51.8411 206.051 52.2635 206.051 52.2635C206.345 53.4272 206.726 54.5671 207.192 55.6734C207.886 57.3995 208.809 59.0245 209.936 60.5045C210.928 61.8214 212.198 62.9026 213.657 63.6707C219.281 66.4886 207.735 76.9093 207.735 76.9093Z" fill="#F8BDC5"/>
<g opacity="0.1">
<path opacity="0.1" d="M207.183 55.6734C206.353 56.7549 205.244 57.5892 203.974 58.0858C202.705 58.5825 201.324 58.7227 199.981 58.4912C199.904 56.9127 199.577 55.3373 198.72 54.3754C196.466 51.8411 206.042 52.2635 206.042 52.2635C206.336 53.4272 206.717 54.5671 207.183 55.6734Z" fill="#191C1F"/>
</g>
<path d="M201.254 58.1829C205.376 58.1829 208.718 54.8412 208.718 50.7189C208.718 46.5966 205.376 43.2549 201.254 43.2549C197.132 43.2549 193.79 46.5966 193.79 50.7189C193.79 54.8412 197.132 58.1829 201.254 58.1829Z" fill="#F8BDC5"/>
<path d="M232.235 63.532C231.869 65.4851 231.634 67.4606 231.533 69.4452C231.418 71.9826 229.612 81.1823 228.952 84.4658C228.869 84.8868 228.683 85.2808 228.411 85.6126C228.139 85.9445 227.789 86.204 227.392 86.368C225.561 87.1172 222.231 87.5365 219.993 82.2614C218.731 79.3588 217.707 76.3584 216.931 73.2898C216.657 72.2583 216.451 71.2099 216.315 70.1513L221.248 67.4752C221.712 67.9096 222.105 68.4141 222.413 68.9705C223.094 70.1389 223.794 72.0134 223.646 74.6556L225.188 76.9093C225.188 76.9093 228.989 65.0797 228.271 62.9678C227.552 60.8559 230.524 60.2917 230.524 60.2917C230.524 60.2917 238.833 53.8174 239.82 54.8008C240.806 55.7843 236.882 60.7141 232.235 63.532Z" fill="#F8BDC5"/>
<path d="M191.82 69.1647C191.435 70.2662 190.993 71.3468 190.494 72.4019C188.836 75.9689 185.586 81.651 180.555 84.9375C172.81 90.006 174.499 79.7271 174.499 79.7271C174.499 79.7271 176.396 67.506 176.753 66.3499C177.317 64.5186 177.034 61.7038 177.034 61.7038C174.077 60.2948 170.698 51.4249 171.682 50.7189C172.665 50.0129 179.697 58.1829 179.697 58.1829C179.697 58.1829 182.938 59.7244 181.239 62.2679C179.54 64.8114 180.252 76.0676 180.252 76.0676L183.511 71.5695C184.236 69.6925 185.21 67.9214 186.406 66.3036C187.023 65.462 187.454 64.9533 187.454 64.9533L191.82 69.1647Z" fill="#F8BDC5"/>
<g opacity="0.1">
<path opacity="0.1" d="M222.416 68.9705C221.38 69.3528 217.369 70.9713 216.925 73.2867C216.651 72.2552 216.445 71.2068 216.309 70.1482L221.241 67.4721C221.709 67.9067 222.106 68.4124 222.416 68.9705Z" fill="#191C1F"/>
</g>
<g opacity="0.1">
<path opacity="0.1" d="M191.82 69.1647C191.435 70.2662 190.992 71.3468 190.494 72.4019C190.303 71.0083 189.517 67.4444 186.406 66.2944C187.023 65.4527 187.454 64.944 187.454 64.944L191.82 69.1647Z" fill="#191C1F"/>
</g>
<g opacity="0.1">
<path opacity="0.1" d="M207.735 76.9093H199.565V63.6707C199.807 62.3993 199.95 61.1107 199.99 59.817C201.67 61.4386 201.254 63.9513 201.254 63.9513L205.62 73.817L207.735 65.0951L207.032 63.9698L209.93 60.523C210.921 61.8399 212.192 62.9211 213.651 63.6892C219.281 66.4886 207.735 76.9093 207.735 76.9093Z" fill="#191C1F"/>
</g>
<g opacity="0.1">
<path opacity="0.1" d="M213.506 103.941C213.506 103.941 207.106 103.433 201.553 103.192L200.995 103.167C200.206 103.137 199.454 103.112 198.717 103.093C193.328 102.964 187.233 101.08 186.197 100.75C186.585 100.148 187.005 99.5667 187.455 99.0084L195.905 100.858C195.905 100.858 197.237 101.284 200.197 102.594L195.341 99.0084L210.139 101.684C210.139 101.684 210.654 101.62 213.377 103.143L213.506 103.941Z" fill="#191C1F"/>
</g>
<path d="M207.735 65.6439L207.032 64.5186L210.158 60.7789C210.158 60.7789 216.604 63.939 218.294 63.2453C218.294 63.2453 222.379 66.6366 222.518 68.5974C222.518 68.5974 216.604 70.5675 216.743 73.5303C216.882 76.4931 213.938 82.8225 213.938 82.8225L212.704 87.8849C211.945 90.9528 211.84 94.1461 212.396 97.2573L213.521 103.525C213.521 103.525 204.648 102.822 198.723 102.68C192.797 102.538 186.048 100.288 186.048 100.288L189.505 93.015C190.751 90.3904 191.361 87.5091 191.287 84.6045L190.978 72.8304C190.978 72.8304 190.698 66.9172 186.045 65.9306C186.045 65.9306 188.58 60.7203 192.52 61.1427C192.52 61.1427 198.26 58.7472 199.965 60.3658C201.67 61.9843 201.251 64.5217 201.251 64.5217L205.616 74.3874L207.735 65.6439Z" fill="#FD3E60"/>
<g opacity="0.1">
<path opacity="0.1" d="M195.868 49.1805C196.999 49.1805 197.887 47.9812 199.019 48.0429C199.604 48.0737 200.107 48.4468 200.591 48.7828C202.42 50.0494 204.455 50.9883 206.606 51.5575C207.441 51.7795 208.326 51.946 209.165 51.7425C210.004 51.539 210.79 50.8793 210.885 50.0191C210.909 49.64 210.858 49.2599 210.737 48.9C209.788 45.5926 207.64 42.7577 204.713 40.9488C203.541 40.2305 202.111 39.6817 200.813 40.1318C199.641 40.5357 198.886 41.6333 198.038 42.5366C197.399 43.213 196.674 43.8018 195.88 44.2878C195.264 44.6608 194.339 44.9044 193.984 45.5888C193.315 46.8652 194.366 49.1682 195.868 49.1805Z" fill="#191C1F"/>
</g>
<path d="M195.868 48.8999C196.999 48.8999 197.887 47.7006 199.019 47.7623C199.604 47.7931 200.107 48.1662 200.591 48.5022C202.42 49.7688 204.455 50.7077 206.606 51.277C207.441 51.4989 208.326 51.6654 209.165 51.4619C210.004 51.2585 210.79 50.5987 210.885 49.7385C210.909 49.3594 210.858 48.9794 210.737 48.6194C209.788 45.312 207.64 42.4772 204.713 40.6683C203.541 39.9499 202.111 39.4011 200.813 39.8512C199.641 40.2551 198.886 41.3527 198.038 42.256C197.399 42.9324 196.674 43.5212 195.88 44.0072C195.264 44.3802 194.339 44.6238 193.984 45.3082C193.315 46.5969 194.366 48.8845 195.868 48.8999Z" fill="#85555C"/>
<path opacity="0.05" d="M192.455 81.0621C192.455 81.0621 199.355 83.5964 203.862 81.6263L206.116 81.7681C206.116 81.7681 209.862 84.3949 213.823 83.2203" fill="#191C1F"/>
<path opacity="0.05" d="M225.126 76.8384C225.126 76.8384 224.001 79.5144 224.562 80.3592L225.126 76.8384Z" fill="#191C1F"/>
<path opacity="0.05" d="M180.203 75.9937C180.203 75.9937 180.767 78.6697 180.203 79.5145V75.9937Z" fill="#191C1F"/>
<path d="M296.994 136.973C296.994 136.973 284.095 149.872 291.377 169.012C298.659 188.151 278.897 219.98 278.897 219.98C278.897 219.98 279.11 219.95 279.514 219.882C306.006 215.205 319.168 184.908 304.437 162.399C298.946 154.028 294.451 144.212 296.994 136.973Z" fill="#35A7FF"/>
<path opacity="0.1" d="M296.994 137.189C296.994 137.189 284.095 150.088 291.377 169.228C298.659 188.367 278.897 220.193 278.897 220.193C278.897 220.193 279.11 220.162 279.514 220.094C306.006 215.418 319.168 185.121 304.437 162.611C298.946 154.244 294.451 144.428 296.994 137.189Z" fill="#191C1F"/>
<path d="M296.995 136.973C296.995 136.973 289.712 152.783 296.995 165.682C304.277 178.581 298.228 214.779 278.894 219.98" stroke="#535461" stroke-miterlimit="10"/>
<path d="M319.969 189.144C319.969 189.144 305.251 186.801 303.91 199.99C302.568 213.179 275.598 215.007 275.598 215.007L276.104 215.343C298.363 229.957 319.645 224.651 316.436 205.247C315.252 198.035 315.351 190.79 319.969 189.144Z" fill="#35A7FF"/>
<path d="M319.969 189.144C319.969 189.144 308.544 191.65 309.487 202.04C310.43 212.43 292.53 224.882 275.611 215.011" stroke="#535461" stroke-miterlimit="10"/>
<path d="M307.021 215.488C307.021 215.488 295.428 213.17 292.336 210.078C289.244 206.985 275.333 201.578 273.789 205.453C272.244 209.329 252.923 222.456 266.059 224.775C279.196 227.093 296.973 227.858 300.836 226.316C304.699 224.775 307.021 215.488 307.021 215.488Z" fill="#A8A8A8"/>
<path opacity="0.2" d="M266.059 223.329C279.199 225.647 296.973 226.412 300.836 224.87C303.78 223.692 305.824 218.038 306.632 215.405L307.017 215.485C307.017 215.485 304.699 224.759 300.836 226.304C296.973 227.848 279.196 227.077 266.059 224.762C262.267 224.093 261.182 222.521 261.592 220.532C261.913 221.83 263.235 222.829 266.059 223.329Z" fill="#191C1F"/>
</g>
<defs>
<linearGradient id="paint0_linear" x1="160.916" y1="230.12" x2="160.916" y2="6.90906" gradientUnits="userSpaceOnUse">
<stop stop-color="#808080" stop-opacity="0.25"/>
<stop offset="0.54" stop-color="#808080" stop-opacity="0.12"/>
<stop offset="1" stop-color="#808080" stop-opacity="0.1"/>
</linearGradient>
<linearGradient id="paint1_linear" x1="53953.8" y1="76693.7" x2="53953.8" y2="23081.3" gradientUnits="userSpaceOnUse">
<stop stop-color="#808080" stop-opacity="0.25"/>
<stop offset="0.54" stop-color="#808080" stop-opacity="0.12"/>
<stop offset="1" stop-color="#808080" stop-opacity="0.1"/>
</linearGradient>
<clipPath id="clip0">
<rect width="320" height="238.099" fill="white"/>
</clipPath>
</defs>
</svg>
