<svg width="64" height="64" viewBox="0 0 64 64" fill="none" xmlns="http://www.w3.org/2000/svg">
<path d="M30.998 3.555L35.492 1L38.56 5.164L43.705 4.657L44.816 9.706L49.719 11.34L48.68 16.401L52.5 19.888L49.488 24.091L51.559 28.828L47.098 31.442L47.066 36.611L41.926 37.19L39.789 41.896L34.863 40.331L30.998 43.768L27.133 40.331L22.207 41.896L20.07 37.19L14.93 36.611L14.898 31.442L10.438 28.828L12.508 24.091L9.5 19.888L13.316 16.401L12.277 11.34L17.18 9.706L18.291 4.657L23.438 5.164L26.504 1L30.998 3.555Z" fill="#FD3E60"/>
<path d="M30.998 34C37.6255 34 42.998 28.6274 42.998 22C42.998 15.3726 37.6255 10 30.998 10C24.3706 10 18.998 15.3726 18.998 22C18.998 28.6274 24.3706 34 30.998 34Z" fill="#191C1F"/>
<path d="M22.207 41.8959L20.07 37.1899L16.551 36.7939L9 55.4709L17.754 54.3849L23.25 61.1379L29.68 42.5959L27.133 40.3309L22.207 41.8959ZM45.445 36.7939L41.926 37.1899L39.789 41.8959L34.863 40.3309L32.318 42.5939L38.75 61.1379L44.246 54.3849L53 55.4709L45.445 36.7939Z" fill="#35A7FF"/>
</svg>
