<svg width="42" height="42" viewBox="0 0 42 42" fill="none" xmlns="http://www.w3.org/2000/svg">
<g clip-path="url(#clip0)">
<path d="M27.8582 1.604L25.4575 8.26004C27.6734 15.5728 27.6734 26.4267 25.4575 33.7399L27.8582 40.3952C35.8469 37.5704 41.5714 29.9554 41.5714 20.9991C41.5714 12.0442 35.8469 4.42895 27.8582 1.604Z" fill="#EF4F4E"/>
<path d="M27.8587 8.26019V1.60415C25.7133 0.845452 23.4058 0.428711 21.0002 0.428711C24.1724 0.428711 19.7741 11.1793 27.8587 8.26019Z" fill="#F3F4F5"/>
<path d="M21 41.5711C23.4055 41.5711 25.7131 41.1543 27.8585 40.3956V33.7402C19.8551 32.9415 21 41.5711 21 41.5711Z" fill="#F3F4F5"/>
<path d="M0.428223 20.9994C0.428223 29.9856 6.19163 37.6206 14.2217 40.4227V1.57739C6.19163 4.37949 0.428223 12.0145 0.428223 20.9994Z" fill="#3757A6"/>
<path d="M27.8582 8.26001V33.7398C30.0743 26.4267 30.0743 15.5727 27.8582 8.26001Z" fill="#EF4F4E"/>
<path d="M27.8574 33.7403V8.26019C26.4569 3.63687 24.1711 0.428711 20.999 0.428711C18.6234 0.428711 16.3442 0.836679 14.2212 1.57757V40.4231C16.3442 41.164 18.6234 41.5713 20.999 41.5713C24.1711 41.5712 26.4569 38.3631 27.8574 33.7403Z" fill="#F3F4F5"/>
</g>
<defs>
<clipPath id="clip0">
<rect x="0.428223" y="0.428467" width="41.1429" height="41.1429" fill="white"/>
</clipPath>
</defs>
</svg>
