<svg width="42" height="42" viewBox="0 0 42 42" fill="none" xmlns="http://www.w3.org/2000/svg">
<g clip-path="url(#clip0)">
<path d="M4.05054 9.3429C2.72396 11.2684 1.7158 13.4303 1.10449 15.754H10.462L4.05054 9.3429Z" fill="#003AA2"/>
<path d="M15.2377 1.2511C12.8675 1.94136 10.6724 3.0428 8.7395 4.47943L15.2377 10.9776V1.2511Z" fill="#003AA2"/>
<path d="M9.22217 37.862C11.0352 39.1307 13.0609 40.1129 15.2371 40.7466V31.848L9.22217 37.862Z" fill="#003AA2"/>
<path d="M1.34058 27.0731C2.02076 29.2764 3.06306 31.3204 4.39511 33.1387L10.4607 27.0731H1.34058Z" fill="#003AA2"/>
<path d="M4.39018 8.86511C4.27518 9.02233 4.16183 9.1818 4.05074 9.34292L10.4622 15.7541H1.10469C0.953039 16.3312 0.829266 16.9195 0.727295 17.5159H13.0417L4.39018 8.86511Z" fill="white"/>
<path d="M8.74512 37.5223C8.90164 37.6389 9.0625 37.7499 9.22223 37.8617L15.2371 31.8475V40.7461C15.815 40.915 16.4019 41.0609 16.999 41.1781V29.2687L8.74512 37.5223Z" fill="white"/>
<path d="M0.883789 25.3114C1.01147 25.9084 1.16217 26.4963 1.34049 27.0732H10.4607L4.39511 33.1388C5.05479 34.0401 5.78631 34.8859 6.58115 35.6681L16.9377 25.3114H0.883789Z" fill="white"/>
<path d="M15.2381 1.251V10.9775L8.73986 4.47968C7.84401 5.14588 7.00661 5.88548 6.23071 6.68613L16.9996 17.455V0.81897C16.4029 0.936923 15.816 1.0831 15.2381 1.251Z" fill="white"/>
<path d="M15.2384 27.0109L15.1763 27.0733H15.2384V27.0109Z" fill="#D32030"/>
<path d="M16.938 25.3115H17V25.2491L16.938 25.3115Z" fill="#D32030"/>
<path d="M24.8549 17.5157H24.7952V17.5759L24.8549 17.5157Z" fill="#D32030"/>
<path d="M15.2998 15.7547L15.2388 15.6932V15.7547H15.2998Z" fill="#D32030"/>
<path d="M17.0002 17.455V17.5161H17.0614L17.0002 17.455Z" fill="#D32030"/>
<path d="M26.5576 36.1927V40.804C28.7622 40.1869 30.8176 39.2141 32.656 37.9467L27.6594 32.9501C27.2601 34.3529 27.114 35.0782 26.5576 36.1927Z" fill="#003AA2"/>
<path d="M27.6855 9.84914L33.1401 4.39454C31.1805 2.95948 28.9574 1.86585 26.5574 1.19348V5.93054C27.1989 7.21517 27.2528 8.19128 27.6855 9.84914Z" fill="#003AA2"/>
<path d="M37.5199 33.2585C38.8935 31.4106 39.9642 29.3247 40.6595 27.0731H31.3345L37.5199 33.2585Z" fill="#003AA2"/>
<path d="M40.8937 15.7543C40.2694 13.3815 39.231 11.179 37.8625 9.22327L31.3308 15.7543H40.8937Z" fill="#003AA2"/>
<path d="M28.8865 25.6599L30.3001 27.0735L37.0666 33.84C37.2202 33.6477 37.3728 33.456 37.5197 33.2589L31.3343 27.0735H40.6594C40.8371 26.4969 40.988 25.9087 41.1154 25.3116H29.0187C28.9989 25.5614 28.9102 25.4117 28.8865 25.6599Z" fill="white"/>
<path d="M27.4714 10.8809L33.6042 4.74738C33.4505 4.62821 33.2966 4.50965 33.1397 4.39465L27.6851 9.84924C27.7416 10.0649 27.4188 10.66 27.4714 10.8809Z" fill="#E7E7E7"/>
<path d="M26.557 5.55153V1.19317C25.9798 1.03144 25.3922 0.894379 24.7952 0.782593V2.90853C25.4507 3.6192 26.0383 4.51184 26.557 5.55153Z" fill="white"/>
<path d="M28.7463 17.5156H41.2708C41.1691 16.9192 41.045 16.3313 40.8934 15.7538H31.3305L37.8622 9.22277C37.2201 8.30546 36.5065 7.44279 35.7269 6.64343L28.3699 13.9998C28.568 15.3342 28.6567 16.1091 28.7463 17.5156Z" fill="white"/>
<path d="M27.3616 32.652L32.6557 37.9468C33.5363 37.3403 34.3655 36.6654 35.1393 35.9326L28.1756 28.9686C27.9533 30.2566 27.6896 31.5005 27.3616 32.652Z" fill="white"/>
<path d="M24.7957 38.845V41.2145C25.3926 41.1034 25.98 40.9656 26.5575 40.8039V36.1925C26.0384 37.2326 25.4508 38.1353 24.7957 38.845Z" fill="white"/>
<path d="M28.3716 13.9998L35.7279 6.64347C35.0657 5.96329 34.3556 5.33027 33.6046 4.74719L27.8242 10.5285C28.0811 11.6024 28.1978 12.8315 28.3716 13.9998Z" fill="#D42232"/>
<path d="M19.9731 0.452975C20.3159 0.436385 20.6576 0.427612 20.9995 0.427612C20.6556 0.427612 20.3133 0.436385 19.9731 0.452975Z" fill="#D32030"/>
<path d="M20.9989 41.5705C20.6569 41.5705 20.3152 41.5611 19.9731 41.5446C20.3133 41.5618 20.655 41.5705 20.9989 41.5705Z" fill="#D32030"/>
<path d="M21 41.5703C22.2979 41.5703 23.5654 41.4446 24.7964 41.2143V38.8448C23.7158 40.0161 22.4517 41.5703 21 41.5703Z" fill="#E51D35"/>
<path d="M41.2709 17.5157H28.9092C29.073 20.0958 29.0532 22.7489 28.8501 25.3112H41.1144C41.4113 23.92 41.5704 22.4785 41.5704 20.9994C41.5704 19.8111 41.4646 18.649 41.2709 17.5157Z" fill="#D42232"/>
<path d="M28.8855 25.6598C28.7712 26.8753 28.3729 27.8224 28.1748 28.969L35.1385 35.9326C35.8274 35.2797 36.4715 34.5814 37.0652 33.8399L30.299 27.0731L28.8855 25.6598Z" fill="#D42232"/>
<path d="M24.7952 3.06149V0.782948C23.5646 0.553296 22.2971 0.427612 20.9988 0.427612C22.4504 0.427612 23.7146 1.89056 24.7952 3.06149Z" fill="#E51D35"/>
<path d="M26.5574 37.0822C27.1138 35.9675 27.5909 34.6842 27.9904 33.2816L26.5574 31.8485V37.0822Z" fill="#003AA2"/>
<path d="M28.1688 9.36579C27.7354 7.70793 27.1989 6.20077 26.5574 4.91614V10.9765L28.1688 9.36579Z" fill="#003AA2"/>
<path d="M29.285 26.0586C29.3084 25.8104 29.3295 25.5613 29.3496 25.3112H28.5376L29.285 26.0586Z" fill="white"/>
<path d="M26.557 10.9765V4.91583C26.0379 3.87614 25.4507 2.98289 24.7952 2.27283V13.5562L28.3333 10.018C28.2801 9.79715 28.2241 9.58079 28.1683 9.36512L26.557 10.9765Z" fill="white"/>
<path d="M24.8555 17.5157H29.4093C29.3201 16.1093 29.1778 14.7255 28.9799 13.3915L24.8555 17.5157Z" fill="white"/>
<path d="M24.7957 39.7247C25.4512 39.014 26.0384 38.1214 26.5575 37.0817V31.848L27.9905 33.2811C28.3192 32.129 28.595 30.8982 28.8179 29.6104L24.7957 25.5885L24.7957 39.7247Z" fill="white"/>
<path d="M24.7958 39.7249V25.5887L28.8176 29.6108C29.0154 28.4639 29.1711 27.2744 29.285 26.0587L28.5376 25.3113H29.3496C29.5526 22.7488 29.5724 20.0957 29.4088 17.5158H24.8549L28.9791 13.3916C28.8053 12.2229 28.5903 11.0925 28.3334 10.0184L24.7959 13.5565V2.27317C23.7151 1.10189 22.451 0.427612 20.9993 0.427612C20.6573 0.427612 20.3156 0.436385 19.9729 0.452975C18.9611 0.503613 17.9688 0.62808 17.0002 0.819081V17.4551L6.23103 6.68616C5.56934 7.36895 4.95387 8.09647 4.39059 8.86534L11.2796 15.7543L13.042 17.5161H0.727709C0.534797 18.649 0.428223 19.8112 0.428223 20.9994C0.428223 22.4789 0.588041 23.9201 0.884227 25.3113H16.9385L6.58185 35.668C7.26003 36.3342 7.98208 36.9546 8.74643 37.5223L16.9999 29.2688V41.1784C17.9685 41.3694 18.9614 41.4938 19.9733 41.5445C20.3153 41.5611 20.657 41.5705 20.999 41.5705C22.451 41.5705 23.7151 40.8962 24.7958 39.7249Z" fill="#D42232"/>
</g>
<defs>
<clipPath id="clip0">
<rect x="0.428223" y="0.427612" width="41.1429" height="41.1429" fill="white"/>
</clipPath>
</defs>
</svg>
