<svg width="42" height="42" viewBox="0 0 42 42" fill="none" xmlns="http://www.w3.org/2000/svg">
<g clip-path="url(#clip0)">
<path d="M20.9997 41.5713C32.3609 41.5713 41.5711 32.3612 41.5711 20.9999C41.5711 9.63861 32.3609 0.428467 20.9997 0.428467C9.63836 0.428467 0.428223 9.63861 0.428223 20.9999C0.428223 32.3612 9.63836 41.5713 20.9997 41.5713Z" fill="#F0F0F0"/>
<path d="M41.571 20.9999C41.571 12.1549 35.9884 4.61461 28.1548 1.70801V40.2919C35.9884 37.3852 41.571 29.8449 41.571 20.9999Z" fill="#D80027"/>
<path d="M0.428223 20.9999C0.428223 29.8449 6.01079 37.3852 13.8444 40.2918V1.70801C6.01079 4.61461 0.428223 12.1549 0.428223 20.9999Z" fill="#28C637"/>
</g>
<defs>
<clipPath id="clip0">
<rect x="0.428223" y="0.428467" width="41.1429" height="41.1429" fill="white"/>
</clipPath>
</defs>
</svg>
