<svg width="42" height="42" viewBox="0 0 42 42" fill="none" xmlns="http://www.w3.org/2000/svg">
<g clip-path="url(#clip0)">
<path d="M21 41.5705C27.5821 41.5705 33.4369 38.4767 37.2022 33.6671H26.3675C24.9689 38.3295 24.1883 41.5705 21 41.5705Z" fill="#D42232"/>
<path d="M19.7795 41.5349C19.7756 41.5349 19.772 41.5343 19.7681 41.5343C19.772 41.5343 19.7759 41.5349 19.7795 41.5349Z" fill="#C42126"/>
<path d="M26.3675 8.33102H37.2025C33.4368 3.52214 27.5819 0.427612 21 0.427612C24.1883 0.427612 24.9689 3.66859 26.3675 8.33102Z" fill="#D42232"/>
<path d="M19.7681 0.464641C19.772 0.464641 19.7756 0.464029 19.7795 0.464029C19.7759 0.463942 19.772 0.463942 19.7681 0.464641Z" fill="#C42126"/>
<path d="M37.2028 8.33093H26.3677C28.5544 15.6192 28.5544 26.3797 26.3677 33.6669H37.2019C39.9368 30.1745 41.5716 25.7794 41.5716 20.9991C41.5719 16.2191 39.9371 11.8237 37.2028 8.33093Z" fill="#FFD034"/>
<path d="M21.0001 41.5705C20.5908 41.5705 20.1841 41.5585 19.78 41.535C20.1898 41.5578 20.5973 41.5705 21.0001 41.5705Z" fill="#C42126"/>
<path d="M19.78 0.463659C20.184 0.439599 20.5908 0.427612 21.0001 0.427612C20.5973 0.427612 20.1898 0.440902 19.78 0.463659Z" fill="#C42126"/>
<path d="M27.8811 33.6671H4.79883C8.32731 38.1746 13.692 41.1752 19.7689 41.5345C19.7728 41.5345 19.7764 41.5351 19.7803 41.5351C20.1844 41.5584 20.591 41.5705 21.0003 41.5705C24.1887 41.5705 26.4822 38.3295 27.8811 33.6671Z" fill="#D42232"/>
<path d="M4.79883 8.33102H27.8812C26.4822 3.66859 24.1887 0.427612 21.0004 0.427612C20.5911 0.427612 20.1845 0.439599 19.7804 0.463659C19.7765 0.463659 19.7729 0.464267 19.769 0.464267C13.692 0.823256 8.32731 3.82424 4.79883 8.33102Z" fill="#D42232"/>
<path d="M0.428223 20.9991C0.428223 25.7794 2.063 30.1745 4.79794 33.6669H27.8803C30.067 26.3793 30.067 15.6188 27.8803 8.33093H4.79794C2.063 11.8237 0.428223 16.2191 0.428223 20.9991Z" fill="#FFD034"/>
</g>
<defs>
<clipPath id="clip0">
<rect x="0.428223" y="0.427612" width="41.1429" height="41.1429" fill="white"/>
</clipPath>
</defs>
</svg>
