<svg width="32" height="32" viewBox="0 0 32 32" fill="none" xmlns="http://www.w3.org/2000/svg">
<path d="M27.9112 11.0702C27.8893 10.0842 27.6944 9.10969 27.3354 8.19108C27.0223 7.39022 26.5467 6.66287 25.9387 6.05483C25.3307 5.4468 24.6033 4.97125 23.8025 4.65814C22.8838 4.29915 21.9093 4.10425 20.9233 4.08231C19.6037 4.00073 19.1982 4.00073 15.9928 4.00073C12.7874 4.00073 12.3771 4.00073 11.0623 4.08231C10.0763 4.10425 9.10176 4.29915 8.18315 4.65814C7.38327 4.97248 6.6571 5.44895 6.05033 6.05759C5.44355 6.66622 4.9693 7.39384 4.6574 8.19467C4.29842 9.11328 4.10352 10.0878 4.08158 11.0738C4 12.3034 4 12.7137 4 16.0007C4 19.2877 4 19.6164 4.08158 20.9313C4.10352 21.9173 4.29842 22.8918 4.6574 23.8104C4.97052 24.6112 5.44606 25.3386 6.0541 25.9466C6.66213 26.5547 7.38948 27.0302 8.19034 27.3433C9.10895 27.7023 10.0835 27.8972 11.0695 27.9192C12.3015 28.0007 12.713 28.0007 16 28.0007C19.287 28.0007 19.6157 28.0007 20.9305 27.9192C21.9165 27.8972 22.891 27.7023 23.8097 27.3433C24.6105 27.0302 25.3379 26.5547 25.9459 25.9466C26.5539 25.3386 27.0295 24.6112 27.3426 23.8104C27.7016 22.8918 27.8965 21.9173 27.9184 20.9313C28 19.6992 28 19.2877 28 16.0007C28 12.7137 28 12.385 27.9184 11.0702H27.9112ZM25.7747 20.8473C25.7508 21.6031 25.6125 22.351 25.3644 23.0654C25.165 23.5896 24.8569 24.0656 24.4603 24.4622C24.0637 24.8588 23.5877 25.1669 23.0635 25.3663C22.3491 25.6144 21.6012 25.7527 20.8453 25.7766C19.6133 25.8582 19.2018 25.8582 15.9976 25.8582C12.7934 25.8582 12.4647 25.8582 11.1499 25.7766C10.394 25.7527 9.64611 25.6144 8.93172 25.3663C8.40742 25.1672 7.93122 24.8593 7.53444 24.4629C7.13766 24.0666 6.82929 23.5907 6.62961 23.0666C6.381 22.3519 6.24226 21.6036 6.21813 20.8473C6.13656 19.6152 6.13656 19.2038 6.13656 15.9995C6.13656 12.7953 6.13656 12.4666 6.21813 11.1518C6.24199 10.3959 6.38032 9.64804 6.62841 8.93365C6.82829 8.40968 7.13673 7.9339 7.53349 7.53756C7.93024 7.14122 8.40634 6.83328 8.93052 6.63394C9.64491 6.38586 10.3928 6.24752 11.1487 6.22367C12.4683 6.14209 12.7922 6.14209 15.9964 6.14209C19.2006 6.14209 19.5293 6.14209 20.8441 6.22367C21.6 6.24752 22.3479 6.38586 23.0623 6.63394C23.5865 6.83322 24.0627 7.14129 24.4592 7.53788C24.8558 7.93447 25.1639 8.41058 25.3632 8.93485C25.6117 9.64912 25.7501 10.3971 25.7735 11.153C25.8562 12.385 25.8562 12.7965 25.8562 16.0007C25.8562 19.205 25.8562 19.5337 25.7747 20.8473Z" fill="white"/>
<path d="M15.8943 9.63776C14.6315 9.63776 13.3971 10.0122 12.3472 10.7137C11.2973 11.4153 10.479 12.4124 9.99576 13.579C9.51253 14.7456 9.3861 16.0293 9.63244 17.2678C9.87879 18.5063 10.4869 19.6439 11.3797 20.5368C12.2726 21.4296 13.4102 22.0377 14.6487 22.2841C15.8872 22.5304 17.1709 22.404 18.3375 21.9207C19.5041 21.4375 20.5012 20.6192 21.2028 19.5693C21.9043 18.5194 22.2787 17.285 22.2787 16.0223C22.2806 15.1833 22.1168 14.3522 21.7966 13.5768C21.4764 12.8013 21.0062 12.0967 20.413 11.5035C19.8198 10.9103 19.1152 10.4401 18.3397 10.1199C17.5643 9.79971 16.7332 9.63587 15.8943 9.63776ZM15.8943 20.1634C14.796 20.1631 13.7429 19.7267 12.9664 18.9501C12.1898 18.1736 11.7534 17.1205 11.7531 16.0223C11.7342 15.4669 11.8272 14.9134 12.0267 14.3947C12.2262 13.8761 12.528 13.4029 12.9142 13.0033C13.3004 12.6038 13.763 12.286 14.2746 12.069C14.7862 11.852 15.3362 11.7401 15.8919 11.7401C16.4475 11.7401 16.9975 11.852 17.5091 12.069C18.0207 12.286 18.4833 12.6038 18.8695 13.0033C19.2557 13.4029 19.5575 13.8761 19.757 14.3947C19.9565 14.9134 20.0495 15.4669 20.0306 16.0223C20.0303 17.1196 19.5946 18.172 18.819 18.9484C18.0435 19.7249 16.9916 20.1618 15.8943 20.1634ZM22.623 7.91268C22.2379 7.92413 21.8716 8.08226 21.5991 8.35474C21.3266 8.62721 21.1685 8.99347 21.1571 9.37864C21.1571 9.7676 21.3116 10.1406 21.5866 10.4157C21.8617 10.6907 22.2347 10.8452 22.6236 10.8452C23.0126 10.8452 23.3856 10.6907 23.6606 10.4157C23.9357 10.1406 24.0902 9.7676 24.0902 9.37864C24.0994 9.18352 24.0678 8.98862 23.9973 8.80643C23.9269 8.62424 23.8191 8.45878 23.681 8.32066C23.5429 8.18253 23.3774 8.07479 23.1952 8.00433C23.0131 7.93386 22.8182 7.90224 22.623 7.91148V7.91268Z" fill="white"/>
</svg>
