<svg width="145" height="32" viewBox="0 0 145 32" fill="none" xmlns="http://www.w3.org/2000/svg">
<path d="M37.1582 27.6469H53.3462V23.1878H42.2712V4H37.1582V27.6469Z" fill="#35A7FF"/>
<path d="M61.2636 23.2553V17.7828H71.518V13.5264H61.2636V8.39157H72.8756V4H56.1831V27.6469H73.2852V23.2553H61.2636Z" fill="#35A7FF"/>
<path d="M93.8604 27.6469H99.2256L89.3482 4H84.299L74.4541 27.6469H79.6919L81.6489 22.5797H91.9047L93.8604 27.6469ZM83.2899 18.4247L86.7917 9.37117L90.2949 18.4247H83.2899Z" fill="#35A7FF"/>
<path d="M121.09 27.6469L116.136 20.0461C119.007 18.7287 120.679 16.1275 120.679 12.5805C120.679 7.2768 116.988 4 111.087 4H101.525V27.6469H106.637V21.0596H111.339L115.599 27.6469H121.09ZM115.504 12.5805C115.504 15.1479 113.927 16.7017 110.803 16.7017H106.637V8.45909H110.803C113.927 8.45909 115.504 9.97923 115.504 12.5805Z" fill="#35A7FF"/>
<path d="M139.951 4V18.357L128.969 4H124.741V27.6469H129.79V13.2899L140.803 27.6469H145V4H139.951Z" fill="#35A7FF"/>
<path d="M2.02659 3.62405V18.9362C2.02659 21.9658 2.95394 24.3868 5.00508 26.6397C7.10992 28.8364 9.37167 29.8296 12.2022 29.8296C15.0627 29.8296 17.3364 28.8341 19.4382 26.6409C21.4901 24.3877 22.418 21.9664 22.418 18.9362V4.12072C22.2243 3.95089 21.9692 3.84919 21.6963 3.84919C21.4228 3.84919 21.1671 3.95138 20.9735 4.12177V18.9362C20.9735 21.4327 20.0685 23.7761 18.4271 25.5692C18.4179 25.5793 18.4083 25.5895 18.3983 25.5999C16.7234 27.3571 14.5345 28.3258 12.2025 28.3258C9.87061 28.3258 7.68159 27.3571 6.00667 25.5999C5.99667 25.5895 5.98705 25.5792 5.97788 25.5691C4.33636 23.7761 3.43144 21.4326 3.43144 18.9361V3.62405H2.02659ZM21.6938 2.01663e-05C21.6063 -0.000871953 21.5245 0.0458425 21.4764 0.124106L19.029 4.48203H19.0344C18.9783 4.60854 18.9468 4.74885 18.9468 4.898V18.9361C18.9468 20.9128 18.2911 22.6174 16.9798 24.0498C15.6417 25.4537 14.0495 26.1556 12.203 26.1556C10.3565 26.1556 8.76424 25.4537 7.42614 24.0498C6.11477 22.6174 5.45924 20.9128 5.45924 18.9361V3.62397H3.94985V18.9359C3.94985 21.2893 4.79788 23.4872 6.34826 25.181V25.1815C6.35561 25.1895 6.36265 25.1972 6.3697 25.2045C7.95189 26.8644 10.0049 27.7722 12.2036 27.7722C14.402 27.7722 16.4552 26.8644 18.0373 25.2045C18.0444 25.1971 18.0515 25.1892 18.059 25.1812C19.6094 23.4874 20.4574 21.2895 20.4574 18.9361V3.93889C20.3235 3.88114 20.1764 3.84911 20.0237 3.84911C20.0137 3.84911 20.0039 3.84968 19.9939 3.84992L21.1103 1.82854H22.2775L23.3939 3.84976C23.3856 3.84976 23.3775 3.84911 23.3692 3.84911C23.2169 3.84911 23.0702 3.88106 22.9365 3.93856V18.9361C22.9365 22.0902 21.9375 24.6919 19.8081 27.0294L19.8058 27.0317L19.8033 27.0342C17.6219 29.3119 15.1792 30.3833 12.2033 30.3833C9.25682 30.3833 6.82659 29.3139 4.64318 27.0342L4.64083 27.0318L4.63848 27.0294C2.50902 24.6919 1.51015 22.0902 1.51015 18.9361V3.62397H0V18.9361C0 22.4886 1.19091 25.5683 3.57265 28.1754C6.00788 30.7251 8.8847 32 12.2031 32C15.5483 32 18.4385 30.7251 20.8736 28.1754C23.2555 25.5683 24.4463 22.4886 24.4463 18.9361V13.8979V7.03219V4.898C24.4463 4.74885 24.4149 4.60863 24.3588 4.48211V4.48154C24.333 4.42355 24.3018 4.36856 24.2662 4.31682L21.9115 0.124024C21.8636 0.0457609 21.7817 -0.00111526 21.6938 2.01663e-05Z" fill="#35A7FF"/>
</svg>
