<svg width="44" height="36" viewBox="0 0 44 36" fill="none" xmlns="http://www.w3.org/2000/svg">
<path d="M41.5 0.666626H26.3333C25.7587 0.666626 25.2076 0.8949 24.8013 1.30123C24.3949 1.70756 24.1667 2.25866 24.1667 2.83329L24.1732 19.9911C24.1537 20.2316 23.742 25.93 27.8305 30.3673C30.8703 33.6628 35.4702 35.3333 41.5 35.3333C42.0746 35.3333 42.6257 35.105 43.0321 34.6987C43.4384 34.2924 43.6667 33.7413 43.6667 33.1666V31C43.6664 30.4993 43.4927 30.0141 43.1751 29.627C42.8575 29.2399 42.4156 28.9748 41.9247 28.8766C38.9563 28.283 36.8915 27.1151 35.7865 25.4013C35.2097 24.4789 34.8826 23.4224 34.8375 22.3355H41.5C42.0746 22.3355 42.6257 22.1072 43.0321 21.7009C43.4384 21.2945 43.6667 20.7434 43.6667 20.1688V2.83329C43.6667 2.25866 43.4384 1.70756 43.0321 1.30123C42.6257 0.8949 42.0746 0.666626 41.5 0.666626ZM17.6667 0.666626H2.49999C1.92536 0.666626 1.37426 0.8949 0.967928 1.30123C0.561599 1.70756 0.333326 2.25866 0.333326 2.83329L0.339826 19.9911C0.320326 20.2316 -0.0913409 25.93 3.99716 30.3673C7.03699 33.6628 11.6368 35.3333 17.6667 35.3333C18.2413 35.3333 18.7924 35.105 19.1987 34.6987C19.6051 34.2924 19.8333 33.7413 19.8333 33.1666V31C19.833 30.4993 19.6593 30.0141 19.3417 29.627C19.0242 29.2399 18.5823 28.9748 18.0913 28.8766C15.123 28.283 13.0582 27.1151 11.9532 25.4013C11.3766 24.478 11.0496 23.4209 11.0042 22.3333H17.6667C18.2413 22.3333 18.7924 22.105 19.1987 21.6987C19.6051 21.2924 19.8333 20.7413 19.8333 20.1666V2.83329C19.8333 2.25866 19.6051 1.70756 19.1987 1.30123C18.7924 0.8949 18.2413 0.666626 17.6667 0.666626Z" fill="#F0F7FF"/>
</svg>
