<svg width="64" height="64" viewBox="0 0 64 64" fill="none" xmlns="http://www.w3.org/2000/svg">
<path d="M2 36C2 36.5304 2.21071 37.0391 2.58579 37.4142C2.96086 37.7893 3.46957 38 4 38H52C52.5304 38 53.0391 37.7893 53.4142 37.4142C53.7893 37.0391 54 36.5304 54 36V18H2V36Z" fill="#19A1E7" fill-opacity="0.5"/>
<path d="M2 48C2.01747 48.5249 2.23379 49.0235 2.60514 49.3949C2.9765 49.7662 3.47512 49.9825 4 50H52C52.5188 49.9647 53.0073 49.7426 53.375 49.375C53.7426 49.0073 53.9647 48.5188 54 48V34H2V48Z" fill="#35A7FF"/>
<path d="M54 4C53.9825 3.47512 53.7662 2.9765 53.3949 2.60514C53.0235 2.23379 52.5249 2.01747 52 2H4C3.4812 2.0353 2.99275 2.25735 2.62505 2.62505C2.25735 2.99275 2.0353 3.4812 2 4V18H54V4Z" fill="#19A1E7" fill-opacity="0.25"/>
<path d="M11 12C12.1046 12 13 11.1046 13 10C13 8.89543 12.1046 8 11 8C9.89543 8 9 8.89543 9 10C9 11.1046 9.89543 12 11 12Z" fill="#191C1F"/>
<path d="M11 28C12.1046 28 13 27.1046 13 26C13 24.8954 12.1046 24 11 24C9.89543 24 9 24.8954 9 26C9 27.1046 9.89543 28 11 28Z" fill="#191C1F"/>
<path d="M11 44C12.1046 44 13 43.1046 13 42C13 40.8954 12.1046 40 11 40C9.89543 40 9 40.8954 9 42C9 43.1046 9.89543 44 11 44Z" fill="#191C1F"/>
<path d="M46 27H30C29.7348 27 29.4804 26.8946 29.2929 26.7071C29.1054 26.5196 29 26.2652 29 26C29 25.7348 29.1054 25.4804 29.2929 25.2929C29.4804 25.1054 29.7348 25 30 25H46C46.2652 25 46.5196 25.1054 46.7071 25.2929C46.8946 25.4804 47 25.7348 47 26C47 26.2652 46.8946 26.5196 46.7071 26.7071C46.5196 26.8946 46.2652 27 46 27ZM46 11H30C29.7348 11 29.4804 10.8946 29.2929 10.7071C29.1054 10.5196 29 10.2652 29 10C29 9.73478 29.1054 9.48043 29.2929 9.29289C29.4804 9.10536 29.7348 9 30 9H46C46.2652 9 46.5196 9.10536 46.7071 9.29289C46.8946 9.48043 47 9.73478 47 10C47 10.2652 46.8946 10.5196 46.7071 10.7071C46.5196 10.8946 46.2652 11 46 11Z" fill="#191C1F"/>
<path opacity="0.18" d="M47.521 50.0209C49.729 50.0209 50 48.5679 50 47.1879V37.8999C50 34.9879 43.792 30.9209 35.333 34.0869C34.177 35.2399 20.594 48.5159 19 49.9999H35L47.521 50.0209Z" fill="#000064"/>
<path d="M53.9911 32.1531C50.941 30.3961 47.3965 29.6945 43.9072 30.1572C40.4178 30.6199 37.1786 32.2209 34.6918 34.712C32.2051 37.2032 30.6097 40.4452 30.1532 43.9354C29.6966 47.4255 30.4044 50.9688 32.1667 54.0158C33.9291 57.0627 36.6475 59.4431 39.9004 60.7877C43.1534 62.1323 46.7591 62.3661 50.1584 61.4527C53.5578 60.5394 56.5608 58.53 58.7018 55.7361C60.8428 52.9422 62.0022 49.52 62.0001 46.0001C62.0077 43.1901 61.2706 40.4284 59.8637 37.996C58.4569 35.5637 56.4305 33.5476 53.9911 32.1531Z" fill="#FD3E60"/>
<path d="M53.938 49H45.938C45.6728 49 45.4184 48.8946 45.2309 48.7071C45.0433 48.5196 44.938 48.2652 44.938 48V38C44.938 37.7348 45.0433 37.4804 45.2309 37.2929C45.4184 37.1054 45.6728 37 45.938 37C46.2032 37 46.4576 37.1054 46.6451 37.2929C46.8326 37.4804 46.938 37.7348 46.938 38V47H53.938C54.2032 47 54.4576 47.1054 54.6451 47.2929C54.8326 47.4804 54.938 47.7348 54.938 48C54.938 48.2652 54.8326 48.5196 54.6451 48.7071C54.4576 48.8946 54.2032 49 53.938 49Z" fill="white"/>
</svg>
