<svg width="64" height="64" viewBox="0 0 64 64" fill="none" xmlns="http://www.w3.org/2000/svg">
<path d="M38 46.186V49C38 49.7956 37.6839 50.5587 37.1213 51.1213C36.5587 51.6839 35.7956 52 35 52H29C28.2044 52 27.4413 51.6839 26.8787 51.1213C26.3161 50.5587 26 49.7956 26 49V46.184C13.42 46.971 4 50.17 4 54C4 58.42 16.537 62 32 62C47.463 62 60 58.42 60 54C60 50.17 50.584 46.971 38 46.186Z" fill="#FD3E60"/>
<path d="M32 14C35.3137 14 38 11.3137 38 8C38 4.68629 35.3137 2 32 2C28.6863 2 26 4.68629 26 8C26 11.3137 28.6863 14 32 14Z" fill="#35A7FF"/>
<path d="M42 18H22C21.4696 18 20.9609 18.2107 20.5858 18.5858C20.2107 18.9609 20 19.4696 20 20V32C20 32.5304 20.2107 33.0391 20.5858 33.4142C20.9609 33.7893 21.4696 34 22 34H26V49C26 49.7956 26.3161 50.5587 26.8787 51.1213C27.4413 51.6839 28.2044 52 29 52H35C35.7956 52 36.5587 51.6839 37.1213 51.1213C37.6839 50.5587 38 49.7956 38 49V34H42C42.5304 34 43.0391 33.7893 43.4142 33.4142C43.7893 33.0391 44 32.5304 44 32V20C44 19.4696 43.7893 18.9609 43.4142 18.5858C43.0391 18.2107 42.5304 18 42 18Z" fill="#35A7FF"/>
<path opacity="0.15" d="M35.828 51.87C35.5596 51.9524 35.2808 51.9962 35 52H29C28.2044 52 27.4413 51.6839 26.8787 51.1213C26.3161 50.5587 26 49.7956 26 49V46.184C13.42 46.971 4 50.17 4 54C4 56.3 7.4 58.362 12.827 59.82L35.827 51.869L35.828 51.87Z" fill="#000064"/>
</svg>
