<svg width="32" height="32" viewBox="0 0 32 32" fill="none" xmlns="http://www.w3.org/2000/svg">
<path d="M30 8.61216C29.0259 9.0704 27.9848 9.35554 26.9202 9.45574C28.0352 8.77925 28.8723 7.69957 29.2718 6.42235C28.2247 7.08054 27.0722 7.53695 25.8696 7.76967C25.3914 7.21191 24.8051 6.76585 24.1493 6.46084C23.4935 6.15582 22.783 5.99877 22.0647 6.00001C21.3624 5.99957 20.667 6.1432 20.018 6.42267C19.3691 6.70214 18.7795 7.11198 18.2829 7.62874C17.7864 8.14551 17.3925 8.75907 17.124 9.43434C16.8554 10.1096 16.7174 10.8333 16.7178 11.5642C16.7318 11.99 16.7863 12.4133 16.8806 12.8279C14.7562 12.7104 12.6789 12.1323 10.7817 11.1308C8.88446 10.1292 7.20924 8.72629 5.86333 7.01187C5.37835 7.84858 5.12522 8.80859 5.13195 9.7857C5.13773 10.699 5.35485 11.5974 5.76492 12.405C6.17499 13.2125 6.76596 13.9053 7.4878 14.4249C6.63515 14.4202 5.79799 14.1873 5.05691 13.7485V13.8332C5.06218 15.1101 5.49269 16.3456 6.27512 17.3293C7.05755 18.313 8.14349 18.984 9.34797 19.2279C8.89556 19.3257 8.43583 19.3824 7.97398 19.3973C7.64844 19.4115 7.32246 19.3831 7.00374 19.3126C7.34722 20.4074 8.00511 21.3662 8.88865 22.0596C9.7722 22.7531 10.8389 23.1479 11.9448 23.1907C10.0583 24.7505 7.7124 25.5849 5.30317 25.5532C4.86719 25.5678 4.43085 25.5394 4 25.4685C6.28332 27.0097 8.92435 27.8804 11.644 27.9885C14.3636 28.0967 17.0607 27.4382 19.4504 26.0828C21.8401 24.7274 23.8335 22.7253 25.2199 20.2882C26.6064 17.8511 27.3344 15.0694 27.3271 12.2373V11.5609C28.3396 10.7055 29.2384 9.71388 30 8.61216Z" fill="white"/>
</svg>
